<?xml version="1.0" encoding="utf-8"?>
<!-- Generator: Adobe Illustrator 24.0.0, SVG Export Plug-In . SVG Version: 6.00 Build 0)  -->
<svg version="1.1" id="Layer_1" xmlns="http://www.w3.org/2000/svg" xmlns:xlink="http://www.w3.org/1999/xlink" x="0px" y="0px"
	 viewBox="0 0 1920 1080" style="enable-background:new 0 0 1920 1080;" xml:space="preserve">
<style type="text/css">
	.st0{fill:#FFFFFF;}
</style>
<g>
	<path class="st0" d="M1300.76,135.61l12.53-12.53c0.08-0.08,0.2-0.08,0.28,0l1.15,1.15c0.08,0.08,0.08,0.2,0,0.28l-12.53,12.53
		c-0.08,0.08-0.2,0.08-0.28,0l-1.15-1.15C1300.68,135.82,1300.68,135.69,1300.76,135.61z"/>
	<path class="st0" d="M1301.92,137.05l-12.53-12.53c-0.08-0.08-0.08-0.2,0-0.28l1.15-1.15c0.08-0.08,0.2-0.08,0.28,0l12.53,12.53
		c0.08,0.08,0.08,0.2,0,0.28l-1.15,1.15C1302.13,137.12,1302,137.12,1301.92,137.05z"/>
</g>
<g>
	<circle class="st0" cx="1302.06" cy="124.89" r="2.23"/>
	<circle class="st0" cx="1302.06" cy="116.87" r="1.78"/>
	<circle class="st0" cx="1302.06" cy="108.85" r="1.56"/>
</g>
</svg>
