<?xml version="1.0" encoding="utf-8"?>
<!-- Generator: Adobe Illustrator 24.0.0, SVG Export Plug-In . SVG Version: 6.00 Build 0)  -->
<svg version="1.1" id="Layer_1" xmlns="http://www.w3.org/2000/svg" xmlns:xlink="http://www.w3.org/1999/xlink" x="0px" y="0px"
	 viewBox="0 0 1920 1080" style="enable-background:new 0 0 1920 1080;" xml:space="preserve">
<style type="text/css">
	.st0{fill:#333333;}
</style>
<path class="st0" d="M1278.59,137.82L1171.68,30.91c-1.91-1.91-1.91-5.02,0-6.93l5.8-5.8c1.91-1.91,5.02-1.91,6.93,0l106.91,106.91
	c1.91,1.91,1.91,5.02,0,6.93l-5.8,5.8C1283.61,139.73,1280.51,139.73,1278.59,137.82z"/>
<path class="st0" d="M1291.32,131.91l-106.91,106.91c-1.91,1.91-5.02,1.91-6.93,0l-5.8-5.8c-1.91-1.91-1.91-5.02,0-6.93
	l106.91-106.91c1.91-1.91,5.02-1.91,6.93,0l5.8,5.8C1293.23,126.89,1293.23,129.99,1291.32,131.91z"/>
</svg>
