<?xml version="1.0" encoding="utf-8"?>
<!-- Generator: Adobe Illustrator 24.0.0, SVG Export Plug-In . SVG Version: 6.00 Build 0)  -->
<svg version="1.1" id="Layer_1" xmlns="http://www.w3.org/2000/svg" xmlns:xlink="http://www.w3.org/1999/xlink" x="0px" y="0px"
	 viewBox="0 0 1920 1080" style="enable-background:new 0 0 1920 1080;" xml:space="preserve">
<style type="text/css">
	.st0{fill:#494949;}
</style>
<g>
	<path class="st0" d="M1299.37,136l8.91-8.91c0.08-0.08,0.2-0.08,0.28,0l0.75,0.75c0.08,0.08,0.08,0.2,0,0.28l-8.91,8.91
		c-0.08,0.08-0.2,0.08-0.28,0l-0.75-0.75C1299.29,136.2,1299.29,136.07,1299.37,136z"/>
	<path class="st0" d="M1300.13,137.02l-8.91-8.91c-0.08-0.08-0.08-0.2,0-0.28l0.75-0.75c0.08-0.08,0.2-0.08,0.28,0l8.91,8.91
		c0.08,0.08,0.08,0.2,0,0.28l-0.75,0.75C1300.33,137.1,1300.2,137.1,1300.13,137.02z"/>
</g>
<g>
	<circle class="st0" cx="1300.26" cy="124.89" r="2.23"/>
	<circle class="st0" cx="1300.26" cy="116.87" r="1.78"/>
	<circle class="st0" cx="1300.26" cy="108.85" r="1.56"/>
</g>
</svg>
