<svg xmlns="http://www.w3.org/2000/svg" viewBox="0 0 111.78 111.78"><defs><style>.cls-1{fill:none;stroke:#fff;stroke-miterlimit:10;stroke-width:5px;}.cls-2{fill:#fff;}</style></defs><title>call</title><g id="Layer_2" data-name="Layer 2"><g id="Layer_1-2" data-name="Layer 1"><circle class="cls-1" cx="55.89" cy="55.89" r="53.39"/><path class="cls-2" d="M72.84,66.41a4.57,4.57,0,0,0-6.9,0c-1.61,1.6-3.23,3.19-4.81,4.82a1,1,0,0,1-1.33.24c-1-.56-2.15-1-3.16-1.65a50.2,50.2,0,0,1-12.06-11,28.68,28.68,0,0,1-4.32-6.93,1,1,0,0,1,.25-1.27c1.61-1.56,3.18-3.16,4.76-4.76,2.21-2.22,2.21-4.82,0-7.06L41.48,35c-1.3-1.3-2.59-2.62-3.9-3.91a4.59,4.59,0,0,0-6.9,0c-1.63,1.6-3.18,3.24-4.84,4.81a7.83,7.83,0,0,0-2.46,5.3,22.48,22.48,0,0,0,1.73,9.66A58.94,58.94,0,0,0,35.53,68.28,64.39,64.39,0,0,0,56.89,85a30.79,30.79,0,0,0,11.83,3.45,8.67,8.67,0,0,0,7.44-2.84c1.38-1.54,2.94-3,4.4-4.43a4.61,4.61,0,0,0,0-7Z"/><path class="cls-2" d="M70.25,55.61l5-.86a22.44,22.44,0,0,0-19-18.41l-.7,5A17.34,17.34,0,0,1,70.25,55.61Z"/><path class="cls-2" d="M78.07,33.87A36.89,36.89,0,0,0,56.93,23.33l-.71,5A32.16,32.16,0,0,1,83.45,54.74l5-.85A37.21,37.21,0,0,0,78.07,33.87Z"/></g></g></svg>