<?xml version="1.0" encoding="utf-8"?>
<!-- Generator: Adobe Illustrator 24.0.0, SVG Export Plug-In . SVG Version: 6.00 Build 0)  -->
<svg version="1.1" id="Layer_1" xmlns="http://www.w3.org/2000/svg" xmlns:xlink="http://www.w3.org/1999/xlink" x="0px" y="0px"
	 viewBox="0 0 512 512" style="enable-background:new 0 0 512 512;" xml:space="preserve">
<style type="text/css">
	.st0{fill:#D3D3D3;}
</style>
<g>
	<path class="st0" d="M631.15,58.2c-19.61-33.59-46.21-60.19-79.8-79.8C517.75-41.2,481.07-51,441.29-51
		c-39.78,0-76.47,9.8-110.06,29.41c-33.6,19.6-60.19,46.2-79.8,79.8c-19.61,33.6-29.41,70.29-29.41,110.06
		c0,39.78,9.8,76.46,29.41,110.06c19.61,33.59,46.2,60.19,79.8,79.8c33.6,19.61,70.28,29.41,110.06,29.41s76.47-9.8,110.07-29.41
		c33.59-19.6,60.19-46.21,79.79-79.8c19.6-33.6,29.4-70.28,29.4-110.06C660.55,128.49,650.75,91.79,631.15,58.2z M441.28-19.02
		c47.2,0,88.41,15.61,123.62,46.82l-3.57,4.99c-1.43,2-5,5.85-10.7,11.57c-5.71,5.71-11.94,11.14-18.7,16.27
		c-6.76,5.14-15.94,10.99-27.55,17.56c-11.61,6.57-23.98,12.33-37.12,17.28c-21.89-40.35-45.3-76.71-70.23-109.06
		C412.07-17.22,426.82-19.02,441.28-19.02z M294.54,52.06c18.27-23.03,40.54-40.73,66.81-53.1c23.6,31.4,46.82,67.38,69.66,107.92
		c-57.86,15.23-115.53,22.84-173.01,22.84C264.09,100.98,276.27,75.09,294.54,52.06z M266.55,235.79
		c-8.38-21.41-12.56-43.92-12.56-67.53c0-2.67,0.1-4.66,0.29-6c68.9,0,132.95-8.85,192.15-26.55c6.09,11.8,11.14,22.36,15.13,31.69
		c-0.77,0.38-2,0.81-3.71,1.28c-1.72,0.48-2.95,0.81-3.72,1l-10.56,3.71c-7.24,2.67-16.71,7.24-28.41,13.7
		c-11.7,6.48-24.12,14.18-37.26,23.13c-13.13,8.95-26.7,20.8-40.68,35.55c-13.99,14.75-25.74,30.59-35.26,47.53
		C286.73,276.38,274.93,257.2,266.55,235.79z M441.28,355.56c-44.54,0-84.32-14.28-119.34-42.83l4.28,3.14
		c6.66-14.66,16.46-28.75,29.41-42.26c12.94-13.51,25.41-24.41,37.4-32.7c11.99-8.27,25.03-16.08,39.12-23.41
		c14.08-7.32,23.69-11.99,28.83-13.98c5.14-2,9.23-3.57,12.28-4.72l0.57-0.29h0.58c18.65,48.92,31.98,96.31,39.97,142.18
		C490.77,350.61,466.41,355.56,441.28,355.56z M598.89,269.48c-14.09,21.8-31.7,39.83-52.82,54.1
		c-7.81-43.78-19.98-88.42-36.55-133.9c37.88-5.91,76.8-3.14,116.77,8.27C622.11,223.84,612.97,247.69,598.89,269.48z M625.72,165.7
		c-1.9-0.38-4.28-0.81-7.14-1.28s-6.33-1.05-10.42-1.71c-4.09-0.67-8.66-1.28-13.7-1.85c-5.04-0.57-10.42-1.09-16.14-1.57
		c-5.71-0.48-11.8-0.85-18.27-1.14c-6.48-0.28-13.04-0.43-19.7-0.43c-6.66,0-13.66,0.19-20.98,0.57c-7.33,0.38-14.41,1.05-21.26,2
		c-0.58-0.95-1.29-2.52-2.14-4.71c-0.86-2.19-1.48-3.85-1.85-5c-3.62-7.99-7.81-17.04-12.57-27.12
		c13.13-5.33,25.65-11.47,37.55-18.42c11.89-6.95,21.4-13.13,28.54-18.56c7.14-5.43,13.89-11.19,20.27-17.28
		c6.38-6.09,10.51-10.32,12.42-12.7c1.91-2.38,3.71-4.71,5.42-7l0.29-0.29c27.79,33.88,41.97,72.9,42.54,117.06L625.72,165.7z"/>
</g>
</svg>
