<?xml version="1.0" encoding="utf-8"?>
<!-- Generator: Adobe Illustrator 24.0.0, SVG Export Plug-In . SVG Version: 6.00 Build 0)  -->
<svg version="1.1" id="Layer_1" xmlns="http://www.w3.org/2000/svg" xmlns:xlink="http://www.w3.org/1999/xlink" x="0px" y="0px"
	 viewBox="0 0 512 512" style="enable-background:new 0 0 512 512;" xml:space="preserve">
<style type="text/css">
	.st0{fill:#D3D3D3;}
</style>
<g>
	<g>
		<path class="st0" d="M270.62,208h-23.09c-10.29,0-17.41,2.26-23.82,7.55c-5.04,4.35-8.05,10.67-8.05,16.91
			c0,9.61,7.33,19.83,20.91,19.83c1.31,0,2.75-0.13,4.03-0.25l-0.19,0.46c-0.55,1.31-1.06,2.54-1.06,4.47c0,3.75,1.81,6.06,3.56,8.3
			l0.22,0.28l-0.39,0.03c-5.61,0.38-16.05,1.1-23.68,5.79c-9.01,5.36-9.71,13.14-9.71,15.4c0,8.99,8.38,18.06,27.09,18.06
			c21.76,0,33.15-12.01,33.15-23.86c0-8.77-5.14-13.1-10.6-17.7l-4.61-3.58c-1.42-1.18-3.2-2.65-3.2-5.36
			c0-2.67,1.77-4.44,3.34-5.99l0.16-0.16c4.97-3.92,10.61-8.36,10.61-17.96c0-9.66-6.04-14.65-8.94-17.05h7.66
			c0.09,0,0.19-0.03,0.27-0.08l6.6-4.15c0.19-0.12,0.28-0.35,0.21-0.56C271.04,208.15,270.84,208,270.62,208z M242.61,299.54
			c-13.26,0-22.18-6.2-22.18-15.42c0-6.02,3.64-10.4,10.82-13c5.75-1.93,13.17-2.03,13.24-2.03c1.26,0,1.89,0,2.89,0.13
			c9.28,6.6,13.74,10.07,13.74,16.68C261.14,294.31,254.04,299.54,242.61,299.54z M242.49,248.76c-11.13,0-15.75-14.63-15.75-22.47
			c0-3.98,0.91-7.04,2.77-9.35c2.02-2.53,5.49-4.17,8.82-4.17c10.22,0,15.87,13.74,15.87,23.23c0,1.5,0,6.05-3.15,9.22
			C248.94,247.34,245.5,248.76,242.49,248.76z"/>
		<path class="st0" d="M302.98,253.22h-12.17V241.1c0-0.28-0.23-0.5-0.5-0.5h-5.23c-0.28,0-0.5,0.22-0.5,0.5v12.13h-12.11
			c-0.28,0-0.5,0.22-0.5,0.5v5.3c0,0.27,0.22,0.5,0.5,0.5h12.11v12.2c0,0.27,0.22,0.5,0.5,0.5h5.23c0.27,0,0.5-0.22,0.5-0.5v-12.2
			h12.17c0.28,0,0.5-0.22,0.5-0.5v-5.3C303.48,253.45,303.26,253.22,302.98,253.22z"/>
	</g>
</g>
</svg>
