<?xml version="1.0" encoding="utf-8"?>
<!-- Generator: Adobe Illustrator 24.0.0, SVG Export Plug-In . SVG Version: 6.00 Build 0)  -->
<svg version="1.1" id="Layer_1" xmlns="http://www.w3.org/2000/svg" xmlns:xlink="http://www.w3.org/1999/xlink" x="0px" y="0px"
	 viewBox="0 0 512 512" style="enable-background:new 0 0 512 512;" xml:space="preserve">
<style type="text/css">
	.st0{fill:#D3D3D3;}
</style>
<g>
	<path class="st0" d="M280.09,208.02L267.62,208c-14,0-23.05,9.29-23.05,23.66v10.91h-12.53c-1.08,0-1.96,0.88-1.96,1.96v15.8
		c0,1.08,0.88,1.96,1.96,1.96h12.53v39.88c0,1.08,0.88,1.96,1.96,1.96h16.35c1.08,0,1.96-0.88,1.96-1.96v-39.88h14.65
		c1.08,0,1.96-0.88,1.96-1.96l0.01-15.8c0-0.52-0.21-1.02-0.57-1.39c-0.37-0.37-0.87-0.58-1.39-0.58h-14.66v-9.25
		c0-4.44,1.06-6.7,6.85-6.7l8.4,0c1.08,0,1.96-0.88,1.96-1.96v-14.67C282.05,208.9,281.17,208.02,280.09,208.02z"/>
</g>
</svg>
