<?xml version="1.0" encoding="utf-8"?>
<!-- Generator: Adobe Illustrator 24.0.0, SVG Export Plug-In . SVG Version: 6.00 Build 0)  -->
<svg version="1.1" id="Layer_1" xmlns="http://www.w3.org/2000/svg" xmlns:xlink="http://www.w3.org/1999/xlink" x="0px" y="0px"
	 viewBox="0 0 512 512" style="enable-background:new 0 0 512 512;" xml:space="preserve">
<style type="text/css">
	.st0{fill:#D3D3D3;}
</style>
<g>
	<path class="st0" d="M325.08,404.16c-12.75,0-23.89-2.95-33.4-8.85c-7.43-4.38-12.37-10.09-14.84-17.13c-2.67-6.85-4-23.22-4-49.11
		V216.58h103.92v-68.81H272.83V37H210.3c-2.86,22.46-7.99,41.11-15.41,55.96c-7.42,14.66-17.23,27.22-29.41,37.68
		c-12.18,10.28-26.93,18.28-44.26,23.98v61.96h48.54v153.89c0,20.36,2.1,35.69,6.28,45.97c4,10.28,11.52,20.27,22.56,29.98
		c11.42,9.51,24.55,16.65,39.4,21.41c15.42,5.14,33.12,7.71,53.1,7.71c18.27,0,34.73-1.81,49.39-5.43
		c14.47-3.24,31.41-9.42,50.82-18.56v-69.09C369.42,396.93,347.35,404.16,325.08,404.16z"/>
</g>
</svg>
