<?xml version="1.0" encoding="utf-8"?>
<!-- Generator: Adobe Illustrator 24.0.0, SVG Export Plug-In . SVG Version: 6.00 Build 0)  -->
<svg version="1.1" id="Layer_1" xmlns="http://www.w3.org/2000/svg" xmlns:xlink="http://www.w3.org/1999/xlink" x="0px" y="0px"
	 viewBox="0 0 512 512" style="enable-background:new 0 0 512 512;" xml:space="preserve">
<style type="text/css">
	.st0{fill:#D3D3D3;}
</style>
<g>
	<g>
		<g>
			<path class="st0" d="M352,0H160C71.65,0,0,71.65,0,160v192c0,88.35,71.65,160,160,160h192c88.35,0,160-71.65,160-160V160
				C512,71.65,440.35,0,352,0z M464,352c0,61.76-50.24,112-112,112H160c-61.76,0-112-50.24-112-112V160C48,98.24,98.24,48,160,48
				h192c61.76,0,112,50.24,112,112V352z"/>
		</g>
	</g>
	<g>
		<g>
			<path class="st0" d="M256,128c-70.69,0-128,57.31-128,128s57.31,128,128,128s128-57.31,128-128S326.69,128,256,128z M256,336
				c-44.1,0-80-35.9-80-80c0-44.13,35.9-80,80-80s80,35.87,80,80C336,300.1,300.1,336,256,336z"/>
		</g>
	</g>
	<g>
		<g>
			<circle class="st0" cx="393.6" cy="118.4" r="17.06"/>
		</g>
	</g>
</g>
</svg>
