<svg xmlns="http://www.w3.org/2000/svg" viewBox="0 0 438.53 438.53"><defs><style>.cls-1{fill:#d3d3d3;}</style></defs><title>dribbble</title><g id="Layer_2" data-name="Layer 2"><g id="Layer_1-2" data-name="Layer 1"><path class="cls-1" d="M409.13,109.2a218.26,218.26,0,0,0-79.8-79.79Q278.95,0,219.27,0T109.21,29.41a218.26,218.26,0,0,0-79.8,79.79Q0,159.6,0,219.27T29.41,329.33a218.29,218.29,0,0,0,79.8,79.8q50.39,29.4,110.06,29.4t110.06-29.4a218.36,218.36,0,0,0,79.8-79.8q29.4-50.4,29.4-110.06T409.13,109.2ZM219.27,32q70.8,0,123.62,46.82l-3.57,5q-2.15,3-10.7,11.56a184.32,184.32,0,0,1-18.7,16.28,250.37,250.37,0,0,1-27.56,17.56,263.89,263.89,0,0,1-37.11,17.27Q212.42,85.94,175,37.4A188.54,188.54,0,0,1,219.27,32ZM72.52,103.06A184.72,184.72,0,0,1,139.33,50q35.4,47.1,69.66,107.92A677.3,677.3,0,0,1,36,180.72,185.05,185.05,0,0,1,72.52,103.06Zm-28,183.73A183.6,183.6,0,0,1,32,219.27a48.32,48.32,0,0,1,.28-6q103.37,0,192.15-26.55,9.14,17.7,15.13,31.69a22.17,22.17,0,0,1-3.71,1.28c-1.72.48-3,.81-3.72,1l-10.56,3.71q-10.86,4-28.41,13.71t-37.26,23.13q-19.69,13.42-40.68,35.55a239.4,239.4,0,0,0-35.26,47.53A187.35,187.35,0,0,1,44.54,286.79ZM219.27,406.56q-66.81,0-119.34-42.83l4.28,3.15q10-22,29.41-42.26t37.4-32.7a370.25,370.25,0,0,1,39.11-23.41q21.13-11,28.84-14t12.28-4.72l.56-.29h.58q28,73.38,40,142.19A187.18,187.18,0,0,1,219.27,406.56Zm157.61-86.08a187.23,187.23,0,0,1-52.82,54.1q-11.71-65.65-36.55-133.9,56.82-8.87,116.77,8.28A184.92,184.92,0,0,1,376.88,320.48ZM403.71,216.7q-2.86-.57-7.14-1.29l-10.43-1.71c-4.08-.66-8.66-1.28-13.7-1.85s-10.42-1.1-16.14-1.57-11.79-.86-18.26-1.15-13.05-.42-19.71-.42-13.66.19-21,.57-14.41,1.05-21.26,2a34.09,34.09,0,0,1-2.15-4.72c-.85-2.18-1.48-3.85-1.84-5q-5.44-12-12.58-27.13A292.56,292.56,0,0,0,297.08,156a290.67,290.67,0,0,0,28.54-18.56,236.25,236.25,0,0,0,20.27-17.28,164.5,164.5,0,0,0,12.42-12.7q2.87-3.57,5.43-7l.28-.29Q405.71,151,406.56,217.27Z"/></g></g></svg>