<svg xmlns="http://www.w3.org/2000/svg" viewBox="0 0 94.14 96.83"><defs><style>.cls-1{fill:#d3d3d3;}</style></defs><title>google</title><g id="Layer_2" data-name="Layer 2"><g id="Layer_1-2" data-name="Layer 1"><path class="cls-1" d="M61.27,0H38.18C27.89,0,20.77,2.26,14.36,7.55A22.78,22.78,0,0,0,6.3,24.46c0,9.62,7.33,19.83,20.92,19.83,1.3,0,2.75-.13,4-.25l-.19.46A10.43,10.43,0,0,0,30,49c0,3.75,1.81,6.06,3.56,8.29l.22.29-.39,0c-5.61.38-16.05,1.09-23.67,5.78C.7,68.72,0,76.51,0,78.77c0,9,8.38,18.06,27.09,18.06,21.76,0,33.15-12,33.15-23.87,0-8.77-5.14-13.1-10.6-17.7L45,51.68c-1.42-1.18-3.19-2.64-3.19-5.36s1.77-4.44,3.33-6l.16-.17c5-3.92,10.61-8.36,10.61-18s-6-14.65-8.93-17h7.66a.53.53,0,0,0,.27-.08L61.54.92a.51.51,0,0,0,.21-.56A.5.5,0,0,0,61.27,0Zm-28,91.54c-13.27,0-22.18-6.2-22.18-15.42,0-6,3.65-10.4,10.83-13a51.12,51.12,0,0,1,13.24-2,19.65,19.65,0,0,1,2.89.13C47.33,67.82,51.8,71.29,51.8,77.9,51.8,86.31,44.7,91.54,33.27,91.54Zm-.13-50.78C22,40.76,17.39,26.12,17.39,18.29c0-4,.91-7,2.77-9.35A11.68,11.68,0,0,1,29,4.77C39.21,4.77,44.86,18.51,44.86,28c0,1.5,0,6.06-3.15,9.22A12.9,12.9,0,0,1,33.14,40.76Z"/><path class="cls-1" d="M93.64,45.22H81.47V33.1a.5.5,0,0,0-.5-.5H75.73a.5.5,0,0,0-.5.5V45.22H63.13a.5.5,0,0,0-.5.5V51a.5.5,0,0,0,.5.5h12.1v12.2a.51.51,0,0,0,.5.5H81a.51.51,0,0,0,.5-.5V51.53H93.64a.51.51,0,0,0,.5-.5V45.72A.51.51,0,0,0,93.64,45.22Z"/></g></g></svg>