<svg xmlns="http://www.w3.org/2000/svg" viewBox="0 0 441.67 512"><defs><style>.cls-1{fill:#d3d3d3;}</style></defs><title>house</title><g id="Layer_2" data-name="Layer 2"><g id="Layer_1-2" data-name="Layer 1"><path class="cls-1" d="M391.75,481.58V450a35.5,35.5,0,1,0-30,0v31.58a65.49,65.49,0,1,1,29.91-127.51V102.17H284.16V481.84h-30V42.7H229.8V0H24.35V42.7H0V512l441.67-.17v-30H391.76v-.25ZM353,315.83H323V273.16h30Zm0-85.33H323V187.83h30ZM179.33,273.17v42.67h-30V273.17Zm-30-42.67V187.83h30V230.5Zm30,128v42.67h-30V358.5Zm0-213.33h-30V102.5h30ZM74.66,102.5h30v42.67h-30Zm0,85.33h30V230.5h-30Zm0,85.34h30v42.67h-30Zm0,85.33h30v42.67h-30Z"/></g></g></svg>