<svg xmlns="http://www.w3.org/2000/svg" viewBox="0 0 1073.99 580.75"><defs><style>.cls-1{fill:#e82328;}</style></defs><title>logo-r</title><g id="Layer_2" data-name="Layer 2"><g id="Layer_1-2" data-name="Layer 1"><path class="cls-1" d="M365.12,160.34C365.12,48.44,274.16,0,159.52,0H0V323.35H159.05c115.11,0,206.07-51.1,206.07-163M118.55,249.46V73.34h33.53c57.82,0,91.87,21.49,91.87,86.19s-30.62,89.93-91.87,89.93Z"/><polygon class="cls-1" points="501.81 194.08 591.75 323.35 729.86 323.35 600.29 157.41 730.35 0 591.63 0 501.81 124.27 501.81 0 389.08 0 389.08 323.35 501.81 323.35 501.81 194.08"/><polygon class="cls-1" points="869.27 200.68 947.54 323.35 1071.08 323.35 979.65 192.73 754.65 192.73 754.65 323.35 869.27 323.35 869.27 200.68"/><rect class="cls-1" x="754.66" y="112.4" width="114.62" height="13.04"/><path class="cls-1" d="M1020.72,172.43H754.66v13.24h245a96.55,96.55,0,0,0,21.11-13.24"/><path class="cls-1" d="M869.27,105.33V70.83h23c23.61,0,40.27,11.15,42,34.5h116.28v-9.2C1047.27,10.78,971,0,904.85,0H754.66V105.36H869.27Z"/><path class="cls-1" d="M1050.14,111.48H934.29a54.65,54.65,0,0,1-2.93,14h116.69a106,106,0,0,0,2.09-14"/><path class="cls-1" d="M900.43,145.47h140.73a58.56,58.56,0,0,0,5.18-13.7H927.42c-5.5,7.9-15.47,12.47-27,13.7"/><path class="cls-1" d="M1037.78,152.13H754.66v13.45h273.4a92.08,92.08,0,0,0,9.72-13.45"/><rect class="cls-1" x="754.66" y="132.46" width="114.62" height="13.05"/><path class="cls-1" d="M649.06,390.45h-.16c-.92,3.45-1.79,7.77-2.77,11.1l-3.62,12.15h13.36l-3.75-12.15c-1.11-3.41-2.18-7.65-3.06-11.1"/><path class="cls-1" d="M902.7,390.45h-.18c-.91,3.45-1.79,7.77-2.8,11.1l-3.56,12.15H909.5l-3.74-12.15c-1.1-3.41-2.17-7.65-3.06-11.1"/><path class="cls-1" d="M547.85,390.05a31.79,31.79,0,0,0-6.17.4v15.78h5.37c6.82,0,10.84-3.24,10.84-8.27s-3.77-7.91-10-7.91"/><path class="cls-1" d="M450.56,390.05c-9.3,0-14.7,8.35-14.7,19.52s5.56,19.18,14.7,19.18,14.54-8.29,14.54-19.47c0-10.35-5.15-19.23-14.54-19.23"/><path class="cls-1" d="M0,461.84H1074V346.37H0Zm445.37-94.65h10.19l9.08,10.48H455l-4.48-5.33h-.17l-4.49,5.33h-9.47ZM98.75,431.32c-6.35,5-16.11,7.42-28,7.42a128.57,128.57,0,0,1-15.5-.86V381.64a127.09,127.09,0,0,1,18.38-1.26c11.57,0,19.08,2,24.83,6.12,6.29,4.45,10.2,11.46,10.2,21.59,0,11-4.21,18.56-10,23.23m52.2,6.8-4.64-14.68H129l-4.28,14.68H110.62L129,380.81h17.94l18.84,57.31Zm71.43,0H208.07L195.17,416a198.71,198.71,0,0,1-10.5-20.27h-.36c.46,7.65.63,15.78.63,25.14v17.23H172.4V380.81h15.94l12.57,21a180.82,180.82,0,0,1,9.85,19.63H211a210.92,210.92,0,0,1-1.13-24V380.81h12.53Zm60.37,0H269.13v-24H246.61v24H233V380.81h13.64v22h22.52v-22h13.62Zm60.88,0-14.88-24.75-5.11,6v18.73H310.1V380.81h13.54v25.32h.16c1.35-2.18,2.79-4.21,4.23-6.28l13.63-19h16.83l-20,24.4,21,32.91Zm70,0H400v-24H377.52v24H363.87V380.81h13.65v22H400v-22h13.62Zm36.21.94c-17.84,0-28.37-12.83-28.37-29.27,0-17.15,11.64-30,29.36-30,18.56,0,28.7,13.16,28.7,29.07,0,18.87-11.94,30.19-29.69,30.19m51.06-.94H487.26V380.81H500.9Zm58.87,0c-.89-1.7-2.45-6.29-4.11-13.35-1.69-7.26-4.3-9.07-10-9.15h-4v22.5H528.12V381.55a125.89,125.89,0,0,1,18.2-1.17c8.95,0,15.26,1.26,19.55,4.5,3.67,2.71,5.66,6.82,5.66,12.08,0,7.24-5.5,12.24-10.69,14v.25c4.23,1.64,6.53,5.39,8.08,10.63,1.89,6.56,3.65,14.07,4.82,16.26Zm58.75,0H580V380.81h37.21v10.62H593.67v11.9h22.21v10.56H593.67v13.6h24.85Zm44,0-4.64-14.68H640.55l-4.32,14.68H622.16l18.39-57.31h17.88l18.86,57.31Zm59.19,0H684V380.81h13.63v46.43h24Zm62,0H745.25V380.81h37.21v10.62H758.88v11.9H781.1v10.56H758.88v13.6h24.83Zm22.78.88c-6.89,0-13.73-1.79-17.1-3.63l2.75-10.6a36.33,36.33,0,0,0,15.15,3.6c6.26,0,9.57-2.47,9.57-6.22,0-3.58-2.85-5.61-10.08-8-10-3.4-16.66-8.66-16.66-17,0-9.78,8.67-17.16,22.84-17.16,6.89,0,11.82,1.25,15.4,2.89l-3,10.39a29,29,0,0,0-12.52-2.8c-6,0-8.85,2.7-8.85,5.57,0,3.66,3.33,5.29,11.24,8.11,10.66,3.72,15.57,9,15.57,17.09,0,9.61-7.71,17.78-24.28,17.78m57.64-.88H850.54V391.7H834.17V380.81h46.45V391.7H864.13Zm52,0-4.69-14.68H894.15l-4.28,14.68H875.8l18.35-57.31h17.93l18.84,57.31ZM972,391.7H955.5v46.42H941.87V391.7H925.58V380.81H972Zm44.45,46.42H978V380.81h37.18v10.62H991.6v11.9h22.24v10.56H991.6v13.6h24.86Z"/><path class="cls-1" d="M75.11,390.35a33.12,33.12,0,0,0-6.16.48v37.51a27.1,27.1,0,0,0,4.72.25c12.47.09,20.63-6.39,20.63-20.06,0-11.9-7.38-18.18-19.19-18.18"/><path class="cls-1" d="M137.52,390.45h-.2c-.87,3.45-1.78,7.77-2.77,11.1L131,413.7h13.36l-3.79-12.15c-1.08-3.41-2.13-7.65-3-11.1"/><path class="cls-1" d="M27.08,563,15.86,531.53l-5.52,9.31V563H0V496.13H10.34V523.9l14.92-27.77H36.38l-14.1,24.39L38.39,563Z"/><path class="cls-1" d="M43.73,505.88v-9.75h9.45v9.75Zm0,57.14V513.18h9.45V563Z"/><path class="cls-1" d="M92.4,547.59a34.66,34.66,0,0,1-.56,6.3A11.61,11.61,0,0,1,89,559.5a11.34,11.34,0,0,1-5.46,3.58A23.12,23.12,0,0,1,77,564a19.19,19.19,0,0,1-7.72-1.35,11.31,11.31,0,0,1-4.74-3.8A15.33,15.33,0,0,1,62.11,553a37.66,37.66,0,0,1-.7-7.62v-15a49.1,49.1,0,0,1,.56-7.54,11.58,11.58,0,0,1,3.45-6.56,13.48,13.48,0,0,1,5.26-3.16,19.82,19.82,0,0,1,6-1,19.42,19.42,0,0,1,6.44,1.06,13,13,0,0,1,5.31,3.55,11,11,0,0,1,2.16,3.25,21.37,21.37,0,0,1,1.15,3.61,20.08,20.08,0,0,1,.46,3.86c0,1.34,0,2.65,0,3.92v8.23H70.71v4.5c0,1.21,0,2.48.07,3.83a11.89,11.89,0,0,0,.67,3.64,6.17,6.17,0,0,0,1.88,2.74,5.75,5.75,0,0,0,3.84,1.1,5.49,5.49,0,0,0,3.31-.89,5.23,5.23,0,0,0,1.79-2.29,10,10,0,0,0,.68-3.11c.06-1.13.1-2.26.1-3.41H92.4ZM80.06,505.05l-3.13-3.38-3.19,3.38H65.42l6.32-8.92H82.17l6.31,8.92ZM83,528.74a25.46,25.46,0,0,0-.2-3.23,6.76,6.76,0,0,0-.9-2.67,4.91,4.91,0,0,0-1.92-1.78,6.86,6.86,0,0,0-3.2-.63,6.2,6.2,0,0,0-3.11.68,4.83,4.83,0,0,0-1.84,1.83,8,8,0,0,0-.85,2.67,21.46,21.46,0,0,0-.22,3.13v2.7H83ZM74,493.79l4.6-8.92h9.65L81,493.79Z"/><path class="cls-1" d="M121.29,563V526.54c0-.68,0-1.36,0-2a5.44,5.44,0,0,0-.43-1.86,3.19,3.19,0,0,0-1.09-1.39,3.45,3.45,0,0,0-2.06-.54,6.48,6.48,0,0,0-4.26,1.64,19.07,19.07,0,0,0-3.23,3.36V563h-9.45V513.18h9.45v6.41a30.1,30.1,0,0,1,5.39-5,11.55,11.55,0,0,1,6.89-2,7.62,7.62,0,0,1,4.15,1,7.41,7.41,0,0,1,2.49,2.58,10.32,10.32,0,0,1,1.2,3.71,31.32,31.32,0,0,1,.29,4.2V563Z"/><path class="cls-1" d="M184,505.68V563H173.69V505.68H160.76v-9.55H197v9.55Z"/><path class="cls-1" d="M223.53,563a11.67,11.67,0,0,1-.68-2.86,28.75,28.75,0,0,1-.15-3,39.9,39.9,0,0,1-4.94,4.55,10.18,10.18,0,0,1-6.37,2,9,9,0,0,1-4.73-1.15,9.77,9.77,0,0,1-3.11-3.06,12.88,12.88,0,0,1-1.71-4.26,22.93,22.93,0,0,1-.49-4.75,17.45,17.45,0,0,1,1-6,12.89,12.89,0,0,1,3.35-4.94,28.35,28.35,0,0,1,8.12-5.29l8.92-3.87v-2.6a25.58,25.58,0,0,0-.14-2.59,7.12,7.12,0,0,0-.64-2.33,3.66,3.66,0,0,0-1.49-1.58,5.11,5.11,0,0,0-2.62-.59c-2.16,0-3.6.71-4.34,2.15a11.76,11.76,0,0,0-1.21,4.94h-9.93q.63-7.48,4.95-11.36t11.8-3.86a20.33,20.33,0,0,1,5.58.75,9.75,9.75,0,0,1,4.65,3.07,9,9,0,0,1,2.43,5.16,52.62,52.62,0,0,1,.32,5.75v22.19c0,2.25,0,4.51.09,6.78a29.57,29.57,0,0,0,1,6.73Zm-.83-25.65c-1.2.59-2.48,1.27-3.82,2.08a22.4,22.4,0,0,0-3.7,2.76,16.22,16.22,0,0,0-2.84,3.48,8.1,8.1,0,0,0-1.15,4.21,6.59,6.59,0,0,0,1.2,3.84,4,4,0,0,0,3.51,1.74,6.3,6.3,0,0,0,4-1.34A11.63,11.63,0,0,0,222.7,551Zm-8.22,40.44V568.9h8.71v8.91Z"/><path class="cls-1" d="M272,545.89a50.17,50.17,0,0,1-.56,7.56,12.48,12.48,0,0,1-8.72,9.72,22.18,22.18,0,0,1-6.1.84,20.87,20.87,0,0,1-6.09-.89,12.67,12.67,0,0,1-5.21-3.09,10.46,10.46,0,0,1-3.43-6.53,58.81,58.81,0,0,1-.49-7.61V530.41c0-1.28,0-2.53,0-3.8a19.69,19.69,0,0,1,.44-3.69,15.42,15.42,0,0,1,1.2-3.48,12.1,12.1,0,0,1,2.23-3.13,12.6,12.6,0,0,1,5.26-3.21,20.86,20.86,0,0,1,12.19,0,12.72,12.72,0,0,1,5.22,3.21,10,10,0,0,1,2.27,3.09,15.51,15.51,0,0,1,1.18,3.52,25,25,0,0,1,.46,3.69c.07,1.27.1,2.52.1,3.8Zm-9.35-16.07a27.39,27.39,0,0,0-.2-3.25,9.15,9.15,0,0,0-.81-2.94,5.18,5.18,0,0,0-1.8-2.11,5.71,5.71,0,0,0-3.22-.8,5.19,5.19,0,0,0-3.15.85,5.54,5.54,0,0,0-1.74,2.16,10.26,10.26,0,0,0-.81,2.88,23,23,0,0,0-.22,3.21v16.56a22.74,22.74,0,0,0,.22,3.2,10.37,10.37,0,0,0,.81,2.91,4.83,4.83,0,0,0,4.89,3,5.79,5.79,0,0,0,3.22-.79,4.88,4.88,0,0,0,1.8-2.09,9.48,9.48,0,0,0,.81-3,27.39,27.39,0,0,0,.2-3.25Z"/><path class="cls-1" d="M341.06,550.53a18.83,18.83,0,0,1-3,7.08,14.51,14.51,0,0,1-5.68,4.69,19.9,19.9,0,0,1-8.72,1.71,20.58,20.58,0,0,1-8.54-1.71,14.68,14.68,0,0,1-6.39-5.69,14.38,14.38,0,0,1-2-4.12,27.22,27.22,0,0,1-1-4.55,36.77,36.77,0,0,1-.3-4.68V519.89c0-1.67,0-3.31.06-4.9a37.41,37.41,0,0,1,.38-4.75,23.84,23.84,0,0,1,1.16-4.58,17.4,17.4,0,0,1,2.33-4.33,14.06,14.06,0,0,1,6.31-4.73,22.05,22.05,0,0,1,7.83-1.44,19.35,19.35,0,0,1,8.16,1.58,15.44,15.44,0,0,1,5.66,4.37,18.27,18.27,0,0,1,3.25,6.56,30.64,30.64,0,0,1,1.05,8.2v2H331.31c0-1.41-.07-2.86-.2-4.36a14.1,14.1,0,0,0-1-4.21,8,8,0,0,0-2.34-3.21,6.62,6.62,0,0,0-4.25-1.24,6.84,6.84,0,0,0-4.38,1.24,7.59,7.59,0,0,0-2.3,3.15,13.65,13.65,0,0,0-.91,4.17c-.09,1.5-.14,3-.14,4.35v22.29c0,1.4,0,2.94.1,4.6a14.92,14.92,0,0,0,.85,4.6,9.13,9.13,0,0,0,2.35,3.59,7.72,7.72,0,0,0,9.09-.06,8.75,8.75,0,0,0,2.4-3.73,19.3,19.3,0,0,0,.9-4.79c.11-1.73.17-3.3.17-4.7h10.28v2.2A41.69,41.69,0,0,1,341.06,550.53Z"/><path class="cls-1" d="M380.13,545.89a50.17,50.17,0,0,1-.56,7.56,12.48,12.48,0,0,1-8.72,9.72,22.29,22.29,0,0,1-6.1.84,20.82,20.82,0,0,1-6.09-.89,12.67,12.67,0,0,1-5.21-3.09A10.52,10.52,0,0,1,350,553.5a60.64,60.64,0,0,1-.49-7.61V530.41c0-1.28,0-2.53.06-3.8a20.55,20.55,0,0,1,.43-3.69,15,15,0,0,1,1.21-3.48,11.64,11.64,0,0,1,2.23-3.13,12.6,12.6,0,0,1,5.26-3.21,20.86,20.86,0,0,1,12.19,0,12.79,12.79,0,0,1,5.22,3.21,10.12,10.12,0,0,1,2.27,3.09,15.51,15.51,0,0,1,1.18,3.52,26.39,26.39,0,0,1,.47,3.69c.06,1.27.09,2.52.09,3.8ZM368,505.05l-3.24-3.38-3.08,3.38h-8.42l6.31-8.92h10.53l6.32,8.92Zm2.79,24.77a27.39,27.39,0,0,0-.2-3.25,9.41,9.41,0,0,0-.81-2.94,5.13,5.13,0,0,0-1.81-2.11,5.65,5.65,0,0,0-3.21-.8,5.15,5.15,0,0,0-3.15.85,5.46,5.46,0,0,0-1.74,2.16,10.61,10.61,0,0,0-.81,2.88,23,23,0,0,0-.22,3.21v16.56a22.74,22.74,0,0,0,.22,3.2,10.72,10.72,0,0,0,.81,2.91,5.13,5.13,0,0,0,1.74,2.16,5.22,5.22,0,0,0,3.15.83,5.74,5.74,0,0,0,3.21-.79,4.84,4.84,0,0,0,1.81-2.09,9.76,9.76,0,0,0,.81-3,27.39,27.39,0,0,0,.2-3.25Zm-10.19,48V568.9h8.72v8.91Z"/><path class="cls-1" d="M409,563V526.54c0-.68,0-1.36,0-2a5.21,5.21,0,0,0-.42-1.86,3.14,3.14,0,0,0-1.1-1.39,3.41,3.41,0,0,0-2.06-.54,6.42,6.42,0,0,0-4.25,1.64,19.82,19.82,0,0,0-3.23,3.36V563h-9.46V513.18h9.46v6.41a30.39,30.39,0,0,1,5.38-5,11.61,11.61,0,0,1,6.9-2,7.56,7.56,0,0,1,4.14,1,7.35,7.35,0,0,1,2.5,2.58,10.32,10.32,0,0,1,1.2,3.71,29.75,29.75,0,0,1,.29,4.2V563Z"/><path class="cls-1" d="M462.64,522.62a4.6,4.6,0,0,0-3.23-1.22,4.44,4.44,0,0,0-2,.39,4.67,4.67,0,0,0-1.55,1.52,34.65,34.65,0,0,1,.22,15.4,19,19,0,0,1-2.45,6.12,12.27,12.27,0,0,1-4.6,4.26,14.89,14.89,0,0,1-7.22,1.59,15.59,15.59,0,0,1-1.79-.1,18,18,0,0,1-1.84-.29,10.78,10.78,0,0,0-1.49,1.15,2.3,2.3,0,0,0-.71,1.75c0,1.07.66,1.78,2,2.12a22.43,22.43,0,0,0,4.87.61c2,.07,4,.18,6.27.34a21.72,21.72,0,0,1,6.27,1.4,11.53,11.53,0,0,1,4.87,3.65c1.3,1.66,2,4.05,2,7.15a10.46,10.46,0,0,1-1.9,6.56,12.55,12.55,0,0,1-4.84,3.75,20.69,20.69,0,0,1-6.41,1.64c-2.33.23-4.58.34-6.73.34-1.54,0-3.29-.08-5.27-.24a23.59,23.59,0,0,1-5.6-1.16,12.22,12.22,0,0,1-4.51-2.68,6.59,6.59,0,0,1-1.86-4.93,6.77,6.77,0,0,1,.66-3.11,7.57,7.57,0,0,1,1.77-2.25,12.11,12.11,0,0,1,2.5-1.67,19.55,19.55,0,0,1,2.91-1.2,18,18,0,0,1-4.12-2.28A5,5,0,0,1,427,557q0-3.62,2.35-5.21a19.41,19.41,0,0,1,5.39-2.53,13.51,13.51,0,0,1-4.24-3.28,15.37,15.37,0,0,1-2.49-4.16,20.23,20.23,0,0,1-1.26-4.87,42.53,42.53,0,0,1-.34-5.31,35.27,35.27,0,0,1,.74-7.37,16.44,16.44,0,0,1,2.55-6.08,12.61,12.61,0,0,1,4.72-4.11,18.6,18.6,0,0,1,14.35-.1,13.72,13.72,0,0,1,5.12,4.92c.78-2.42,1.79-4,3-4.92a10.1,10.1,0,0,1,5.69-1.29Zm-9.3,46a2.71,2.71,0,0,0-.91-2.18,5.76,5.76,0,0,0-2.23-1.1,12.23,12.23,0,0,0-2.72-.39c-.92,0-1.72-.05-2.37-.05l-3.14-.1-2.44-.19-2.45-.2a7.73,7.73,0,0,0-1.76,1.89,4.26,4.26,0,0,0-.74,2.42,2.94,2.94,0,0,0,1.05,2.45,6.62,6.62,0,0,0,2.5,1.21,14.75,14.75,0,0,0,3,.41c1,0,1.92,0,2.66,0s1.54,0,2.65,0a13.38,13.38,0,0,0,3.16-.47,7.39,7.39,0,0,0,2.61-1.27A2.86,2.86,0,0,0,453.34,568.65Zm-6-39.8a20.32,20.32,0,0,0-.21-3,8,8,0,0,0-.87-2.63,4.8,4.8,0,0,0-1.74-1.86,6.57,6.57,0,0,0-5.82,0,4.65,4.65,0,0,0-1.71,1.86,7.7,7.7,0,0,0-.81,2.63,21.85,21.85,0,0,0-.2,3v5.48a22.07,22.07,0,0,0,.2,3,7.29,7.29,0,0,0,.81,2.59,4.78,4.78,0,0,0,1.71,1.86,6.24,6.24,0,0,0,5.82,0,4.94,4.94,0,0,0,1.74-1.86,7.54,7.54,0,0,0,.87-2.59,20.52,20.52,0,0,0,.21-3Z"/><path class="cls-1" d="M529.39,542.16c0,6.7-1.5,11.85-4.46,15.45S517,563,510,563H493.69V532.86h-2.3v-9.55h2.3V496.13H510q10.43,0,14.89,5.46c3,3.65,4.46,8.81,4.46,15.5Zm-10.34-22.27a46.85,46.85,0,0,0-.3-5.39,13.29,13.29,0,0,0-1.29-4.56,7.47,7.47,0,0,0-3-3.11,11,11,0,0,0-5.43-1.15h-5v17.63h7.74v9.55H504v20.62h5a10.87,10.87,0,0,0,5.43-1.16,7.35,7.35,0,0,0,3-3.11,13.15,13.15,0,0,0,1.29-4.5,46.59,46.59,0,0,0,.3-5.44Z"/><path class="cls-1" d="M568.36,545.89a50.17,50.17,0,0,1-.56,7.56,12,12,0,0,1-3.46,6.58,11.77,11.77,0,0,1-5.26,3.14,22.29,22.29,0,0,1-6.1.84,20.82,20.82,0,0,1-6.09-.89,12.7,12.7,0,0,1-5.22-3.09,10.56,10.56,0,0,1-3.43-6.53,60.64,60.64,0,0,1-.49-7.61V530.41c0-1.28,0-2.53,0-3.8a19.69,19.69,0,0,1,.44-3.69,15.42,15.42,0,0,1,1.2-3.48,12.1,12.1,0,0,1,2.23-3.13,12.7,12.7,0,0,1,5.27-3.21,20.86,20.86,0,0,1,12.19,0,12.69,12.69,0,0,1,5.21,3.21,10,10,0,0,1,2.28,3.09,15.51,15.51,0,0,1,1.18,3.52,26.39,26.39,0,0,1,.46,3.69c.06,1.27.1,2.52.1,3.8Zm-12.15-40.84L553,501.67l-3.08,3.38h-8.42l6.31-8.92h10.53l6.32,8.92Zm-5.52-11.26-7.2-8.92h9.59l4.66,8.92Zm8.32,36a25.45,25.45,0,0,0-.21-3.25,9.41,9.41,0,0,0-.8-2.94,5.13,5.13,0,0,0-1.81-2.11,5.68,5.68,0,0,0-3.21-.8,5.22,5.22,0,0,0-3.16.85,5.43,5.43,0,0,0-1.73,2.16,10.26,10.26,0,0,0-.81,2.88,23,23,0,0,0-.22,3.21v16.56a22.74,22.74,0,0,0,.22,3.2,10.37,10.37,0,0,0,.81,2.91,5.11,5.11,0,0,0,1.73,2.16,5.29,5.29,0,0,0,3.16.83,5.76,5.76,0,0,0,3.21-.79A4.84,4.84,0,0,0,558,552.6a9.76,9.76,0,0,0,.8-3,25.45,25.45,0,0,0,.21-3.25Z"/><path class="cls-1" d="M597.25,563V526.54c0-.68,0-1.36-.06-2a5.21,5.21,0,0,0-.41-1.86,3.21,3.21,0,0,0-1.1-1.39,3.4,3.4,0,0,0-2-.54,6.47,6.47,0,0,0-4.27,1.64,19.35,19.35,0,0,0-3.22,3.36V563h-9.46V513.18h9.46v6.41a30,30,0,0,1,5.38-5,11.59,11.59,0,0,1,6.91-2,7.52,7.52,0,0,1,4.13,1,7.35,7.35,0,0,1,2.5,2.58,10.52,10.52,0,0,1,1.2,3.71,29.75,29.75,0,0,1,.29,4.2V563Z"/><path class="cls-1" d="M650.87,522.62a4.59,4.59,0,0,0-3.24-1.22,4.43,4.43,0,0,0-2,.39,4.58,4.58,0,0,0-1.55,1.52,34.44,34.44,0,0,1,.21,15.4,18.52,18.52,0,0,1-2.44,6.12,12.3,12.3,0,0,1-4.61,4.26,14.84,14.84,0,0,1-7.21,1.59,15.46,15.46,0,0,1-1.79-.1,17.52,17.52,0,0,1-1.84-.29,10.22,10.22,0,0,0-1.49,1.15,2.3,2.3,0,0,0-.71,1.75c0,1.07.66,1.78,2,2.12a22.53,22.53,0,0,0,4.88.61q2.91.11,6.26.34a21.57,21.57,0,0,1,6.27,1.4,11.35,11.35,0,0,1,4.87,3.65c1.31,1.66,2,4.05,2,7.15a10.34,10.34,0,0,1-1.91,6.56,12.34,12.34,0,0,1-4.82,3.75,20.75,20.75,0,0,1-6.42,1.64c-2.32.23-4.57.34-6.73.34-1.52,0-3.28-.08-5.26-.24a23.59,23.59,0,0,1-5.6-1.16,11.94,11.94,0,0,1-4.5-2.68,6.52,6.52,0,0,1-1.87-4.93,6.9,6.9,0,0,1,.65-3.11,7.91,7.91,0,0,1,1.77-2.25,13,13,0,0,1,2.5-1.67,19.67,19.67,0,0,1,2.92-1.2,18.35,18.35,0,0,1-4.13-2.28,5,5,0,0,1-1.7-4.23q0-3.62,2.35-5.21a19.35,19.35,0,0,1,5.38-2.53,13.35,13.35,0,0,1-4.23-3.28,15.67,15.67,0,0,1-2.5-4.16A20.23,20.23,0,0,1,615,537a42.53,42.53,0,0,1-.34-5.31,35.27,35.27,0,0,1,.74-7.37,16.43,16.43,0,0,1,2.54-6.08,12.69,12.69,0,0,1,4.72-4.11,16,16,0,0,1,7.33-1.49,15.73,15.73,0,0,1,7,1.39,13.44,13.44,0,0,1,5.12,4.92c.78-2.42,1.8-4,3-4.92a10,10,0,0,1,5.68-1.29Zm-9.31,46a2.71,2.71,0,0,0-.9-2.18,5.76,5.76,0,0,0-2.23-1.1,12.4,12.4,0,0,0-2.72-.39c-.93,0-1.72-.05-2.37-.05l-3.14-.1-2.44-.19-2.46-.2a7.93,7.93,0,0,0-1.76,1.89,4.33,4.33,0,0,0-.73,2.42,2.94,2.94,0,0,0,1.05,2.45,6.7,6.7,0,0,0,2.5,1.21,14.66,14.66,0,0,0,3,.41c1,0,1.93,0,2.68,0s1.53,0,2.63,0a13.3,13.3,0,0,0,3.16-.47,7.44,7.44,0,0,0,2.62-1.27A2.85,2.85,0,0,0,641.56,568.65Zm-6-39.8a20.3,20.3,0,0,0-.22-3,8,8,0,0,0-.86-2.63,4.85,4.85,0,0,0-1.73-1.86,5.47,5.47,0,0,0-2.92-.68,5.4,5.4,0,0,0-2.91.68,4.67,4.67,0,0,0-1.72,1.86,8.42,8.42,0,0,0-.81,2.63,21.87,21.87,0,0,0-.19,3v5.48a22.08,22.08,0,0,0,.19,3,8,8,0,0,0,.81,2.59,4.81,4.81,0,0,0,1.72,1.86,5.22,5.22,0,0,0,2.91.72,5.28,5.28,0,0,0,2.92-.72,5,5,0,0,0,1.73-1.86,7.54,7.54,0,0,0,.86-2.59,20.51,20.51,0,0,0,.22-3Z"/><path class="cls-1" d="M700.48,505.68V563H690.14V505.68H677.21v-9.55H713.5v9.55Z"/><path class="cls-1" d="M739,563V526.54c0-.68,0-1.36-.06-2a5,5,0,0,0-.41-1.86,3.21,3.21,0,0,0-1.1-1.39,3.39,3.39,0,0,0-2.06-.54,6.44,6.44,0,0,0-4.25,1.64,19.07,19.07,0,0,0-3.23,3.36V563h-9.46V496.13h9.46v23.46a30,30,0,0,1,5.38-5,11.56,11.56,0,0,1,6.9-2,7.56,7.56,0,0,1,4.14,1,7.46,7.46,0,0,1,2.51,2.58,10.72,10.72,0,0,1,1.19,3.71,31.32,31.32,0,0,1,.29,4.2V563Z"/><path class="cls-1" d="M757,505.88v-9.75h9.46v9.75ZM757,563V513.18h9.46V563Zm.5,14.79V568.9h8.72v8.91Z"/><path class="cls-1" d="M795.61,563V526.54c0-.68,0-1.36-.05-2a5.21,5.21,0,0,0-.42-1.86,3.14,3.14,0,0,0-1.1-1.39,3.4,3.4,0,0,0-2-.54,6.46,6.46,0,0,0-4.26,1.64,19.07,19.07,0,0,0-3.23,3.36V563h-9.45V513.18h9.45v6.41a30,30,0,0,1,5.38-5,11.63,11.63,0,0,1,6.9-2,7.51,7.51,0,0,1,4.14,1,7.29,7.29,0,0,1,2.51,2.58,10.51,10.51,0,0,1,1.19,3.71,31.34,31.34,0,0,1,.3,4.2V563Z"/><path class="cls-1" d="M834.2,563V526.54c0-.68,0-1.36-.05-2a5.44,5.44,0,0,0-.42-1.86,3.36,3.36,0,0,0-1.1-1.39,3.42,3.42,0,0,0-2-.54,6.43,6.43,0,0,0-4.26,1.64,19.51,19.51,0,0,0-3.24,3.36V563h-9.45V496.13h9.45v23.46a30.39,30.39,0,0,1,5.38-5,11.66,11.66,0,0,1,6.91-2,7.5,7.5,0,0,1,4.13,1,7.21,7.21,0,0,1,2.51,2.58,10.51,10.51,0,0,1,1.19,3.71,28.35,28.35,0,0,1,.3,4.2V563Z"/><path class="cls-1" d="M901.81,563H889l-14.36-66.89h10.63L895.41,547l8.81-50.83h10.43Z"/><path class="cls-1" d="M950.54,519.74V563h-9.3v-6.41a27.55,27.55,0,0,1-5.42,5,11.78,11.78,0,0,1-6.92,2.11,8,8,0,0,1-4.22-1,7.26,7.26,0,0,1-2.51-2.6,10,10,0,0,1-1.2-3.7,29.65,29.65,0,0,1-.29-4.2v-39h9.45v36.53c0,.66,0,1.31,0,2a6.22,6.22,0,0,0,.4,1.87,3.19,3.19,0,0,0,1,1.4,3.23,3.23,0,0,0,2,.53,6.77,6.77,0,0,0,4.31-1.59,17.25,17.25,0,0,0,3.34-3.4V513.18h8.23l.63-2h-3.48v-8.28h7.49v8.28Z"/><path class="cls-1" d="M987.52,518.86c.09.16.19.34.28.54a14.89,14.89,0,0,1,1.13,3.52,29.76,29.76,0,0,1,.46,3.69c.08,1.27.13,2.52.13,3.8v15.48a50.17,50.17,0,0,1-.56,7.56,12.52,12.52,0,0,1-8.72,9.72,22.22,22.22,0,0,1-6.09.84,21,21,0,0,1-6.11-.89,12.86,12.86,0,0,1-5.21-3.09,10.54,10.54,0,0,1-3.42-6.53,58.82,58.82,0,0,1-.5-7.61V530.41c0-1.28,0-2.53.06-3.8a18.89,18.89,0,0,1,.44-3.69,15.39,15.39,0,0,1,1.19-3.48,12.1,12.1,0,0,1,2.23-3.13,12.7,12.7,0,0,1,5.27-3.21,20.35,20.35,0,0,1,6-.91,21.53,21.53,0,0,1,6.16.88,12.28,12.28,0,0,1,4.81,2.9l1.56-4.8h-3.47v-8.28h7.48v8.28Zm-7.36,11a27.37,27.37,0,0,0-.19-3.25,9.69,9.69,0,0,0-.8-2.94,5.15,5.15,0,0,0-1.82-2.11,5.64,5.64,0,0,0-3.2-.8,5.18,5.18,0,0,0-3.16.85,5.63,5.63,0,0,0-1.74,2.16,10.61,10.61,0,0,0-.81,2.88,24.61,24.61,0,0,0-.22,3.21v16.56a24.34,24.34,0,0,0,.22,3.2,10.72,10.72,0,0,0,.81,2.91,4.83,4.83,0,0,0,4.9,3,5.72,5.72,0,0,0,3.2-.79,4.86,4.86,0,0,0,1.82-2.09,10,10,0,0,0,.8-3,27.37,27.37,0,0,0,.19-3.25Zm-10.17,48V568.9h8.71v8.91Z"/><path class="cls-1" d="M1018.41,563V526.54c0-.68,0-1.36,0-2a5.44,5.44,0,0,0-.42-1.86,3.24,3.24,0,0,0-1.08-1.39,3.52,3.52,0,0,0-2.08-.54,6.44,6.44,0,0,0-4.25,1.64,19.51,19.51,0,0,0-3.24,3.36V563h-9.45V513.18h9.45v6.41a30.15,30.15,0,0,1,5.4-5,11.54,11.54,0,0,1,6.9-2,7.54,7.54,0,0,1,4.13,1,7.29,7.29,0,0,1,2.51,2.58,10.31,10.31,0,0,1,1.18,3.71,28.35,28.35,0,0,1,.3,4.2V563Z"/><path class="cls-1" d="M1072,522.62a4.56,4.56,0,0,0-3.22-1.22,4.41,4.41,0,0,0-2,.39,4.67,4.67,0,0,0-1.55,1.52,33.09,33.09,0,0,1,1,8.13,34.13,34.13,0,0,1-.75,7.27,19,19,0,0,1-2.45,6.12,12.42,12.42,0,0,1-4.6,4.26,15,15,0,0,1-7.23,1.59,15.59,15.59,0,0,1-1.79-.1,17,17,0,0,1-1.83-.29,10.87,10.87,0,0,0-1.5,1.15,2.26,2.26,0,0,0-.7,1.75c0,1.07.66,1.78,2,2.12a22.35,22.35,0,0,0,4.87.61c1.95.07,4,.18,6.28.34a21.58,21.58,0,0,1,6.26,1.4,11.59,11.59,0,0,1,4.87,3.65c1.3,1.66,2,4.05,2,7.15a10.34,10.34,0,0,1-1.91,6.56,12.48,12.48,0,0,1-4.82,3.75,20.62,20.62,0,0,1-6.4,1.64c-2.35.23-4.59.34-6.75.34-1.53,0-3.27-.08-5.25-.24a23.68,23.68,0,0,1-5.61-1.16,12.22,12.22,0,0,1-4.51-2.68,7.55,7.55,0,0,1-1.19-8,7.38,7.38,0,0,1,1.76-2.25,12.11,12.11,0,0,1,2.5-1.67,19.89,19.89,0,0,1,2.9-1.2,18,18,0,0,1-4.11-2.28,5,5,0,0,1-1.7-4.23q0-3.62,2.34-5.21a19.28,19.28,0,0,1,5.39-2.53,13.39,13.39,0,0,1-4.24-3.28,15.94,15.94,0,0,1-2.5-4.16,20.22,20.22,0,0,1-1.24-4.87,39,39,0,0,1-.34-5.31,35.29,35.29,0,0,1,.73-7.37,16.77,16.77,0,0,1,2.54-6.08,12.6,12.6,0,0,1,4.74-4.11,18.58,18.58,0,0,1,14.34-.1,13.56,13.56,0,0,1,5.11,4.92c.79-2.42,1.79-4,3-4.92a10.09,10.09,0,0,1,5.68-1.29Zm-9.29,46a2.68,2.68,0,0,0-.91-2.18,5.72,5.72,0,0,0-2.22-1.1,12.48,12.48,0,0,0-2.72-.39c-.94,0-1.73-.05-2.38-.05l-3.14-.1-2.44-.19-2.44-.2a7.59,7.59,0,0,0-1.77,1.89,4.25,4.25,0,0,0-.73,2.42,2.92,2.92,0,0,0,1,2.45,6.44,6.44,0,0,0,2.49,1.21,14.75,14.75,0,0,0,3,.41c1,0,1.92,0,2.67,0s1.53,0,2.64,0a13.46,13.46,0,0,0,3.16-.47,7.66,7.66,0,0,0,2.63-1.27A2.89,2.89,0,0,0,1062.73,568.65Zm-6-39.8a21.82,21.82,0,0,0-.21-3,8.47,8.47,0,0,0-.86-2.63,4.87,4.87,0,0,0-1.74-1.86,6.59,6.59,0,0,0-5.83,0,4.58,4.58,0,0,0-1.71,1.86,7.93,7.93,0,0,0-.81,2.63,23.62,23.62,0,0,0-.19,3v5.48a23.87,23.87,0,0,0,.19,3,7.49,7.49,0,0,0,.81,2.59,4.71,4.71,0,0,0,1.71,1.86,6.26,6.26,0,0,0,5.83,0,5,5,0,0,0,1.74-1.86,8,8,0,0,0,.86-2.59,22.06,22.06,0,0,0,.21-3Z"/></g></g></svg>