<svg xmlns="http://www.w3.org/2000/svg" viewBox="0 0 360.62 200.08"><title>project-background</title><g id="Layer_2" data-name="Layer 2"><g id="Layer_1-2" data-name="Layer 1"><path d="M341.57,200V134.54a.07.07,0,0,0,0,0l-26.73-2.77h0l-14,.86V83.82a.05.05,0,0,0,0,0l-25.91-4.42h0l-4.43.49V76.15a2,2,0,0,0,1.21-1.91,1.55,1.55,0,0,0-1.12-1.6h0l-.23,0-.1,0h-.25a1.91,1.91,0,0,0-1.43,2,1.53,1.53,0,0,0,1.14,1.64l.23,0h.21v3.65l-4.51.49V77.81a1.4,1.4,0,0,0,.73-1.28,1.11,1.11,0,0,0-.72-1.12v-1A2.5,2.5,0,0,0,267.18,72a2,2,0,0,0-1.41-2h-.06v0l-.29,0-.13,0H265a2.43,2.43,0,0,0-1.81,2.5,2,2,0,0,0,1.45,2.09l.29,0h.31v.84h-.15a1.34,1.34,0,0,0-1,1.37,1.08,1.08,0,0,0,.8,1.16l.16,0h.19v2.49l-6.58.72V47a0,0,0,0,0,0,0l-11.24-2.36h0l-1.6.23-.22-.06V43.56a.07.07,0,0,0,0-.05l-1.56-.33v-4a.07.07,0,0,0,0,0l-8.37-1.82V34.65a.05.05,0,0,0,0,0l-6.13-1.37h0l-6.13,1a0,0,0,0,0,0,0v.31l-.55-.12V13.84a0,0,0,0,0-.05,0l-.78,0h0s0,0,0,0V34.26l-7.18-1.57h0l-9.58,1.56-9.88-2.11V21.58a.05.05,0,0,0,0,0l-12.57-2.86V9a.05.05,0,0,0,0,0h0l-.58,0a0,0,0,0,0,0,.05v9.52l-.4-.1h0l-1.81.33V.05a.05.05,0,0,0,0,0h0l-.88,0s0,0,0,.05V18.93L166.65,21.1v-.84a0,0,0,0,0,0,0l-5.83-1.29h0L153,20.37a0,0,0,0,0,0,0V23.6l-8.71,1.57a0,0,0,0,0,0,0V74l-19.68-3h0l-2,.28V67.78a2.19,2.19,0,0,0,1.06-2,1.64,1.64,0,0,0-1-1.72h0l-.21,0h-.19l-.14,0a2,2,0,0,0-1.35,2.1c0,.93.48,1.7,1.08,1.77l.21,0h.25v3.48l-4.42.61V69.53a1.58,1.58,0,0,0,.64-1.35,1.2,1.2,0,0,0-.64-1.18v-.94a2.78,2.78,0,0,0,1.48-2.65,2.13,2.13,0,0,0-1.34-2.21h0v0l-.27,0h-.43a2.63,2.63,0,0,0-1.72,2.71c0,1.2.61,2.18,1.38,2.27l.27,0h.31v.76h-.13a1.43,1.43,0,0,0-.94,1.48c0,.65.33,1.19.75,1.24l.15,0h.17V72l-8.77,1.21a.07.07,0,0,0,0,0V84.85l-2.75-.37h0l-2.36.3a0,0,0,0,0,0,0V85l-2.82.35V81.89a2.16,2.16,0,0,0,1-2,1.63,1.63,0,0,0-1-1.68h0v0h0v0l-.2,0H100a2,2,0,0,0-1.31,2c0,.91.47,1.65,1,1.72l.2,0h.26v3.42l-9.63,1.19V83.75c.2-.07.29-.15.3-.24h0V72.92c0-.2-.48-.37-1.42-.52a21.56,21.56,0,0,0-3.2-.25c-2.07,0-3.83.2-4.16.54a.16.16,0,0,0-.07.13V83.41h0c0,.13.19.24.57.34v3.87l-7.69,1L74,88.48h0l-2.19.27a.07.07,0,0,0,0,0V129L54.7,127.67h0l-33.07,2.76s-.05,0-.05,0V200H0v.09H360.62V200ZM54.65,200h-33V130.53l33-2.76Zm17.12,0h-17V127.77l17,1.32ZM74,200H71.87V88.84L74,88.58ZM100,81.85a.47.47,0,0,1-.17,0h-.15a1.58,1.58,0,0,1-.88-1.61,1.91,1.91,0,0,1,1.22-2h.21l.09,0a1.54,1.54,0,0,1,.91,1.58A1.9,1.9,0,0,1,100,81.85Zm.12.07a2.07,2.07,0,0,0,1.21-2,1.9,1.9,0,0,0-.63-1.5,1.62,1.62,0,0,1,.8,1.54,1.92,1.92,0,0,1-1.23,2Zm.36,0v3.46l-.18,0V82ZM82.09,72.82a.09.09,0,0,1,0-.06c.28-.27,1.88-.54,4.1-.51a22.67,22.67,0,0,1,3.18.24c1.06.17,1.34.35,1.34.43V83.37c-.45-.34-2.43-.51-4.29-.53a12.06,12.06,0,0,0-4.36.43Zm0,10.59a.05.05,0,0,1,0,0c.27-.27,2.13-.46,4.32-.44,2.8,0,4.29.36,4.3.58,0,0,0,.08-.2.14V83.5a0,0,0,0,0,0,0h-.4s0,0,0,0l-.22.34a17.21,17.21,0,0,1-2.22.17l-.53-.78V83s0,0,0,0h-.27a0,0,0,0,0,0,0V84h-.33a26.19,26.19,0,0,1-3.18-.21L83,83.54a.05.05,0,0,0,0,0h-.39a.06.06,0,0,0,0,0v.08C82.14,83.54,82.09,83.44,82.09,83.41Zm8.36.13v3.09l-.19,0V83.54Zm-1.69,2.7.25.36-.51.06Zm-.38.43-.22,0L88.6,86l.1.14Zm-1.29-3v-.28l2.17,3.2-.14,0Zm.12.34h-.12v-.18Zm.47.08a18,18,0,0,0,2.09-.15l-1,1.68Zm1.1,1.62,1.34-2.15h0v.28l-1.28,2ZM87,83.09v4l-.18,0v-4Zm-.27,1v3l-.34.05V84.08h.34Zm-.43,0v3.08l-.19,0v-3.1Zm-1.79,2,.08.11L83.5,87.51l-.21,0Zm-1.35,1.47-.2,0V84l1.49,2Zm1.49-1.28.74,1-1.74.22ZM83,83.81v-.19h0l2.65,3.62-.14,0ZM84.86,86,86,84.63v2.56l-.26,0ZM84.8,86l-.09-.13L86,84.26v.22Zm-.15-.21-1.36-1.86a21.58,21.58,0,0,0,2.71.2v0Zm-1.84-2.12h0v.06Zm0,.22v3.75l-.19,0v-4h0Zm-8,102.76V200h-.76V88.58l.77.1v5.88s0,0,0,0h0l.49.09v8.54l-.5.06a0,0,0,0,0,0,0v7.84a.08.08,0,0,0,0,0h.06l.44.09v8.56l-.46.05a0,0,0,0,0,0,0v8a.05.05,0,0,0,0,0h0l.45.06v8.58l-.47,0a0,0,0,0,0,0,0v7.78a0,0,0,0,0,0,0h0l.48.08v8.57l-.46,0a0,0,0,0,0,0,0v7.86l0,0h0l.48.09v8.6l-.48,0a0,0,0,0,0,0,0v7.89a.06.06,0,0,0,0,0h.51v8.69h-.48A0,0,0,0,0,74.82,186.6Zm.51-58.66,5.51-.45-5.46.45Zm-.07,16.56,12-.75-11.86.78Zm12,55.49H74.92V186.64l12.36-.19Zm0-13.91H86.17v-4.86l1.11,0Zm0-5-11.64.26v-.22l11.64-.27Zm-1.2.12v4.87H86v-4.87Zm-.23,0v4.87h-.07v-4.86Zm-.16,0v4.86l-2.09,0v-4.85Zm-2.19,0v4.85h-.12v-4.85Zm-.21,0v4.85h-.08V181.3Zm-.18,0v4.85l-2.09,0v-4.83Zm-2.18,0v4.83h-.11v-4.83Zm-.2,0v4.84h-.09v-4.84Zm-.18,0v4.83l-2.07,0V181.4Zm-2.16,0v4.81h-.11v-4.82Zm-.21,0v4.82h-.09v-4.82Zm-.18,0v4.82l-2.13,0v-4.81Zm-2.23.06v4.8h-.13v-4.8Zm-.13-.41v-2.88h.13v2.88Zm.23,0v-2.87l2.14-.05V181ZM78.1,181v-2.88h.08V181Zm.18,0v-2.87h.1V181Zm.19,0v-2.88l2.07-.05v2.88Zm2.17-.05v-2.88h.08v2.88Zm.18,0v-2.87h.11v2.87Zm.2,0v-2.88l2.09-.05v2.88Zm2.19-.05V178h.07v2.88Zm.17,0V178h.12v2.88Zm.22,0V178l2.09-.05v2.88Zm2.19-.06v-2.87h.06v2.87Zm.16,0v-2.88h.13v2.88Zm1.33,0-1.11,0v-2.88l1.11,0Zm0-3-11.69.28a0,0,0,0,0,0,0v8.18s0,0,0,0,0,0,0,0h0l11.69-.2v.18l-11.83.19v-8.7l11.83-.31Zm0-.37-12.36.32V170l12.36-.43Zm0-8.22-1.11,0v-4.84l1.11,0Zm0-4.94-11.64.44v-.2L87.28,164Zm-1.2.15v4.83H86v-4.83Zm-.22,0v4.84h-.07v-4.83Zm-.17,0v4.83l-2.09.07v-4.82Zm-2.19.08v4.83h-.12v-4.82Zm-.21,0v4.82h-.07v-4.83Zm-.17,0v4.82l-2.09.07v-4.82Zm-2.18.08v4.82h-.11v-4.82Zm-.21,0v4.81h-.08v-4.82Zm-.17,0v4.82l-2.07.07v-4.81Zm-2.17.08v4.81h-.11v-4.81Zm-.2,0v4.81H78.1v-4.81Zm-.19,0v4.81l-2.15.07v-4.8Zm-2.24.08v4.8h-.12v-4.81Zm-.12-.38v-2.91h.12v2.9Zm.21,0v-2.91l2.15-.1v2.92Zm2.24-.1v-2.91h.1v2.91Zm.19,0V161.4h.11v2.91Zm.2,0v-2.92l2.08-.09v2.92Zm2.17-.1v-2.92h.07v2.92Zm.17,0v-2.93h.12v2.92Zm.21,0v-2.93l2.09-.09v2.93Zm2.19-.1v-2.93h.06v2.93Zm.16,0v-2.93h.12v2.93Zm.22,0v-2.93l2.1-.1V164Zm2.19-.1v-2.93h.07V164Zm.17,0v-2.94h.1V164Zm1.32-.06-1.13,0V161l1.13,0Zm0-3-11.69.54a0,0,0,0,0,0,0v8.19a0,0,0,0,0,0,0l0,0h0l11.68-.41v.12l-11.83.42v-8.6l11.83-.54Zm0-.27-11.88.54-.11,0,12-.54Zm0-.11-12.35.55V153.3l12.35-.65Zm0-8.17-1.11.06v-4.82l1.11-.06Zm0-4.92-11.64.67v-.24l11.64-.68Zm-1.2.17v4.82H86v-4.83Zm-.22,0v4.82h-.08V147.6Zm-.17,0v4.82l-2.09.12v-4.82Zm-2.19.12v4.82h-.12v-4.82Zm-.22,0v4.81H83.2v-4.82Zm-.18,0v4.81l-2.07.12v-4.82Zm-2.17.12v4.81h-.1v-4.81Zm-.2,0v4.81h-.08V147.9Zm-.17,0v4.81l-2.07.11V148ZM78.4,148v4.81h-.12V148Zm-.21,0v4.8H78.1V148Zm-.19,0v4.8l-2.14.12v-4.8Zm-2.23.12V153h-.13v-4.8Zm-.13-.42V144.9h.13v2.85Zm.22,0v-2.86l2.14-.13v2.86Zm2.23-.13v-2.87h.1v2.87Zm.19,0v-2.87h.1v2.87Zm.2,0v-2.87l2.07-.14v2.89Zm2.17-.13v-2.89h.08v2.89Zm.18,0v-2.89h.1v2.88Zm.2,0v-2.89l2.08-.14v2.91Zm2.18-.13v-2.9h.07v2.91Zm.17,0v-2.9h.12v2.91Zm.22,0v-2.91l2.09-.13v2.92Zm2.18-.13v-2.92h.09v2.93Zm.18,0v-2.92h.1v2.93Zm1.32-.07-1.12.06v-2.92l1.12-.08Zm0-3-11.69.76a0,0,0,0,0,0,0V153s0,0,0,0l0,0h0l11.69-.64v.11l-11.85.63v-8.56l11.85-.77Zm0-.4-12.37.78v-7.69l12.37-.89Zm0-8.15-1.11.08v-4.84l1.11-.08Zm0-4.93-11.64.86v-.23l11.64-.83Zm-1.21.18v4.84H86v-4.84Zm-.19,0v4.83h-.09v-4.84Zm-.19,0v4.84l-2.09.15v-4.83Zm-2.19.16v4.84h-.12V131Zm-.22,0v4.83h-.07V131Zm-.17,0v4.84L81,136v-4.83Zm-2.18.16V136h-.1v-4.83Zm-.2,0V136h-.08v-4.83Zm-.17,0V136l-2.06.15v-4.83Zm-2.16.16v4.83h-.12v-4.83Zm-.22,0v4.82h-.09v-4.83Zm-.19,0v4.83l-2.13.15v-4.82Zm-2.22.17v4.82h-.13v-4.82Zm-.13-.41v-2.86h.13v2.86Zm.22,0v-2.86l2.15-.17v2.88Zm2.24-.16v-2.88h.08v2.88Zm.18,0V128h.12v2.89Zm.22,0V128l2-.17v2.9Zm2.14-.15v-2.91h.09v2.91Zm.19,0v-2.9h.1v2.91Zm.2,0v-2.91l2.08-.17v2.93Zm2.18-.16v-2.92h.07v2.93Zm.17,0v-2.93h.12v2.93Zm.22,0V127.6l2.09-.16v2.94Zm2.18-.15v-2.95h.09v3Zm.18,0v-3h.11v3Zm1.32-.09-1.11.08V127.4l1.11-.09Zm0-3.06-11.69.94a.07.07,0,0,0,0,0v8.2s0,0,0,0l0,0h0l11.68-.85v.15l-11.85.86V128l11.85-1Zm0-.34-12.35,1V120l12.35-1.12Zm0-8.23-1.1.1v-4.85l1.1-.11Zm0-5-11.63,1.09v-.2l5.82-.54,4-.38,1.33-.12.37,0h.08Zm-1.2.21v4.84l-.12,0v-4.85Zm-.22,0v4.85h-.08v-4.84Zm-.18,0v4.84l-2.09.19v-4.84Zm-2.18.2V119h-.12v-4.84Zm-.21,0V119h-.06v-4.83Zm-.16,0V119L81,119.2v-4.83Zm-2.19.2v4.83h-.12v-4.83Zm-.21,0v4.83h-.1v-4.83Zm-.19,0v4.82l-2.05.19v-4.82Zm-2.15.2v4.82h-.12v-4.82Zm-.22,0v4.82H78.1v-4.81Zm-.16,0v4.81l-2.36.22v-4.81Zm-2.36-.18v-2.9h.12v2.9Zm.21,0v-2.9l2.15-.21v2.91Zm2.24-.21v-2.91h.08v2.92Zm.18,0v-2.92h.11v2.92Zm.21,0V111.3l2.05-.2V114Zm2.14-.2v-2.93h.1V114Zm.19,0v-2.93h.11V114Zm.21,0v-2.93l2.08-.2v2.94Zm2.18-.2v-2.94h.08v2.94Zm.17,0v-3h.12v2.94Zm.21,0v-3l2.11-.21v3Zm2.2-.21v-3h.07v3Zm.17,0v-3h.1v3Zm1.32-.13-1.12.11v-3l1.12-.11Zm0-3.06L75.6,111.49a0,0,0,0,0,0,.05v8.2s0,0,0,0l0,0h0l11.67-1.06v.07l-11.85,1.08v-8.56l11.85-1.18Zm0-.29-11.89,1.18-.16,0,12-1.21Zm0-.15-12.36,1.24v-7.75L87.28,102Zm0-8.12-1.12.12V97.06l1.12-.13Zm0-5L75.64,98.16v-.22l11.64-1.27Zm-1.22.24v4.84H86V97.08Zm-.2,0v4.85h-.09V97.1Zm-.18,0V102l-2.1.23V97.35Zm-2.19.25v4.84h-.11V97.37Zm-.2,0v4.84h-.07V97.39Zm-.17,0v4.84l-2.1.23V97.64Zm-2.19.25v4.83h-.11V97.67Zm-.21,0v4.82h-.09V97.69Zm-.19,0v4.82l-2,.22V97.93Zm-2.13.24v4.81l-.13,0V98Zm-.22,0v4.81h-.09V98ZM78,98v4.81l-2.14.23V98.24Zm-2.24.26V103l-.12,0v-4.8Zm-.12-.41V95l.12,0v2.89Zm.22,0V94.93L78,94.67v2.92Zm2.23-.24V94.66h.09v2.92Zm.18,0V94.64l.13,0v2.92Zm.22,0V94.61l2.06-.25v3Zm2.15-.23v-3h.08v3Zm.18,0v-3l.12,0v3Zm.21,0v-3l2.09-.25v3ZM83.22,97V94h.06v3Zm.16,0V94h.1v3Zm.2,0V94l2.12-.25v3Zm2.21-.24v-3h.07v3Zm.17,0v-3l.12,0v3Zm1.32-.15-1.11.12v-3l1.11-.13Zm0-3.12-11.7,1.42a0,0,0,0,0,0,0v8.2a.05.05,0,0,0,0,0h0l11.69-1.28v.06l-11.83,1.29V94.7l11.83-1.42Zm0-.27L75.41,94.61l-.21,0,12.08-1.42Zm0-.13L74.92,94.51V88.68l12.36-1.55Zm0-6.21V87l-.19,0v-3h.18l1.27,1.84-.5.79-.72.09A0,0,0,0,0,87.28,86.84ZM89.57,200H87.38V86.89l2.19-.26Zm0-113.46-.24,0-.43-.64L90.16,84v2.59l-.54-.06Zm.82,99.83V200h-.77V86.63l.76.09v6a.06.06,0,0,0,0,0h0l.48.09v8.7l-.48,0s0,0,0,0v8s0,0,0,0,0,0,0,0h0l.49.1v8.71l-.47,0a0,0,0,0,0,0,0v8.1l0,0,0,0h0l.47,0v8.75l-.47,0a0,0,0,0,0,0,0v7.91l0,0h0l.47,0v8.77l-.46,0s0,0,0,0v8s0,0,0,0,0,0,0,0h0l.47.08v8.77l-.48,0a0,0,0,0,0,0,0v8.06a0,0,0,0,0,0,0l0,0h0l.46,0v8.84h-.45A0,0,0,0,0,90.43,186.36ZM103.36,200H90.52V186.4l12.84-.22Zm0-14.18h-1.19v-4.94l1.19,0Zm0-5.06L91.29,181v-.24l12.07-.27Zm-1.29.13v5H102v-5Zm-.2,0v5h-.07v-5Zm-.17,0v4.94l-2.2,0v-4.93Zm-2.3.05v4.93h-.1v-4.93Zm-.19,0v4.93h-.1V181ZM99,181v4.92l-2.15,0V181Zm-2.25.05v4.91h-.12V181Zm-.22,0v4.9h-.08V181Zm-.17,0v4.91l-2.15,0v-4.89Zm-2.25.05V186H94v-4.88Zm-.21,0V186h-.1v-4.89Zm-.19,0V186l-2.22,0v-4.86Zm-2.32.06V186h-.12v-4.87Zm-.12-.43v-2.93h.12v2.93Zm.22,0v-2.94l2.22,0v2.94Zm2.32,0v-2.94h.09v2.94Zm.19,0V177.7h.11v2.94Zm.21,0V177.7l2.15,0v2.94Zm2.24,0v-3h.08v2.94Zm.18,0v-2.94h.12v2.94Zm.22,0v-3l2.15,0v2.95Zm2.24-.05v-2.95h.1v2.95Zm.19,0v-3h.1v3Zm.2,0v-3l2.2,0v2.95Zm2.3-.05v-3h.07v3Zm.17,0v-3h.1v3Zm1.39,0-1.19,0v-3l1.19,0Zm0-3.06-12.12.29a.05.05,0,0,0,0,.05V186a.05.05,0,0,0,0,0h0l12.12-.19v.19L91,186.3v-8.84l12.33-.32Zm0-.34-12.85.34v-8l12.85-.45Zm0-8.39-1.18,0v-4.95l1.18,0Zm0-5.05-12.08.48v-.22l12.08-.49Zm-1.28.15v4.95H102v-4.95Zm-.22,0v5h-.08v-5Zm-.18,0v5l-2.17.08v-4.94Zm-2.26.09v4.94h-.13v-4.93Zm-.23,0v4.94h-.08v-4.93Zm-.18,0v4.93l-2.15.08V164Zm-2.24.09v4.92h-.13V164Zm-.23,0v4.92h-.08V164Zm-.17,0v4.92l-2.15.07v-4.91Zm-2.25.08V169H94v-4.91Zm-.21,0V169h-.1v-4.9Zm-.19,0V169l-2.22.07v-4.89Zm-2.32.09v4.9h-.12v-4.89Zm-.12-.4v-2.93h.12v2.92Zm.22,0v-2.93l2.23-.1v2.94Zm2.32-.1v-2.94h.09v2.94Zm.18,0v-2.93h.11v2.94Zm.21,0v-2.94l2.16-.1v2.95Zm2.25-.09v-3h.09v3Zm.19,0v-3h.12v2.95Zm.21,0v-3l2.16-.1v3Zm2.26-.09v-3h.09v3Zm.19,0v-3h.1v3Zm.19,0v-3l2.18-.1v3Zm2.28-.09v-3h.08v3Zm.18,0v-3h.12v3Zm1.4-.06-1.18,0v-3l1.18-.06Zm0-3.08-12.13.56a0,0,0,0,0,0,.05v8.35l0,0h0l12.13-.42v.12L91,169.31v-8.77l12.32-.54Zm0-.28L91,160.45h0l12.41-.54Zm0-.11-12.83.56v-7.89l12.83-.68Zm0-8.28-1.19.06v-5l1.19-.07Zm0-5.07-12.07.7v-.25l12.07-.7Zm-1.29.18v5H102v-5Zm-.2,0v5h-.08v-5Zm-.18,0v4.95l-2.18.11v-4.94Zm-2.28.13v4.94h-.12v-4.93Zm-.21,0v4.94h-.09V146.8Zm-.18,0v4.94l-2.17.11v-4.92Zm-2.27.13v4.92h-.1v-4.92Zm-.2,0v4.91h-.07V147Zm-.16,0v4.92l-2.17.11v-4.9Zm-2.27.14V152H94v-4.9Zm-.2,0V152h-.1v-4.9Zm-.19,0V152l-2.23.12v-4.88Zm-2.32.13v4.88h-.12v-4.88Zm-.12-.44v-2.91h.12v2.92Zm.21,0v-2.91l2.23-.14v2.92Zm2.33-.13v-2.93h.09v2.92Zm.18,0v-2.93h.11v2.93Zm.21,0v-2.92l2.16-.14v2.94Zm2.25-.13v-2.94h.09v2.94Zm.18,0v-2.94h.1v2.94Zm.2,0v-2.94L99,143.4v3Zm2.26-.13V143.4h.09v3Zm.18,0v-3h.13v3Zm.22,0v-3l2.18-.13v3Zm2.28-.13v-3h.08v3Zm.18,0v-3h.1v3Zm1.39-.08-1.19.07v-3l1.19-.08Zm0-3.08-12.12.77a0,0,0,0,0,0,0v8.33a0,0,0,0,0,0,0l0,0h0l12.11-.62v.08L91,152.34v-8.75l12.33-.77Zm0-.4-12.84.81v-7.81l12.84-.92Zm-12.4-16,3.22-.27-3.19.27Zm12.4,7.69-1.18.09V129.5l1.18-.09Zm0-5-12.07.91V130l12.07-.86Zm-1.27.19v4.94H102v-4.94Zm-.23,0v4.94h-.09v-4.94Zm-.18,0v4.94l-2.17.15V129.7Zm-2.27.17v4.93H99.3v-4.93Zm-.2,0v4.93h-.09v-4.92Zm-.19,0v4.93l-2.16.15V129.9Zm-2.25.17v4.92h-.12v-4.92Zm-.22,0v4.91h-.09v-4.91Zm-.18,0v4.92l-2.15.15v-4.9Zm-2.25.17V135H94v-4.9Zm-.21,0V135h-.09v-4.89Zm-.18,0V135l-2.23.16V130.3Zm-2.33.18v4.88h-.11v-4.88Zm-.11-.41v-3h.11v2.95Zm.21,0v-2.95l2.24-.18v3Zm2.34-.16v-3h.08v3Zm.18,0v-3h.09v3Zm.19,0v-3l2.15-.17v3Zm2.25-.16v-3h.09v3Zm.19,0v-3h.11v3Zm.21,0v-3l2.16-.16v3Zm2.26-.16v-3h.09v3Zm.19,0v-3h.1v3Zm.2,0v-3l2.17-.17v3Zm2.27-.16v-3h.08v3Zm.17,0v-3h.13v3Zm1.41-.1-1.19.09v-3l1.19-.09Zm0-3.12-12.12.94a.05.05,0,0,0,0,.05v8.35a.05.05,0,0,0,0,0h0l12.12-.85v.16L91,135.49v-8.74l12.32-1Zm0-.37L90.52,126.6v-8l12.84-1.15Zm0-8.36-1.19.11v-4.91l1.19-.11Zm0-5L91.28,113.3v-.23L103.36,112Zm-1.28.22v4.91H102V112.4Zm-.21,0v4.91h-.11v-4.91Zm-.2,0v4.91l-2.17.19v-4.9Zm-2.26.21v4.9h-.12v-4.9Zm-.21,0v4.9h-.09v-4.89Zm-.19,0v4.9l-2.15.2v-4.89Zm-2.25.22v4.88l-.11,0V112.9Zm-.21,0v4.89h-.08v-4.89Zm-.17,0v4.89l-2.16.19v-4.88Zm-2.26.21V118H94v-4.88Zm-.22,0V118h-.07v-4.88Zm-.16,0v4.88l-2.24.2v-4.87Zm-2.33.22v4.87h-.13V113.4Zm-.13-.42V110h.13V113Zm.22,0V110l2.24-.22v2.94Zm2.33-.22v-2.94h.07v3Zm.17,0v-3h.1v2.95Zm.2,0v-3l2.17-.22v3Zm2.26-.21v-3h.08v3Zm.18,0v-3h.12v3Zm.22,0v-3l2.15-.21v3Zm2.25-.21v-3h.1v3Zm.2,0v-3h.1v3Zm.19,0v-3l2.19-.22v3Zm2.29-.21v-3h.07v3Zm.17,0v-3h.12v3Zm1.4-.13-1.19.11v-3l1.19-.12Zm0-3.13L91.23,110a0,0,0,0,0,0,0v8.32s0,0,0,0a.05.05,0,0,0,0,0h0l12.12-1.09v.06L91,118.45v-8.69l12.33-1.23Zm0-.3L91,109.67l-.21,0,12.58-1.25Zm0-.16-12.85,1.28v-7.86l12.85-1.4Zm0-8.25-1.18.13V95.23l1.18-.14Zm0-5L91.3,96.35v-.24l12.06-1.3Zm-1.27.24v4.92H102V95.25Zm-.22,0v4.92h-.07V95.27Zm-.17,0v4.92l-2.18.24V95.53Zm-2.28.26v4.91h-.14V95.55Zm-.23,0v4.91h-.08V95.57Zm-.18,0v4.91l-2.16.24v-4.9Zm-2.26.26v4.9h-.1v-4.9Zm-.2,0v4.9h-.08v-4.9Zm-.18,0v4.9l-2.16.24v-4.9Zm-2.26.25V101H94V96.15Zm-.2,0v4.89h-.07V96.17Zm-.17,0v4.89l-2.24.24V96.43Zm-2.34.26v4.89h-.1V96.45ZM91.3,96V93.1h.1V96Zm.2,0V93.07l2.24-.26v2.94Zm2.34-.25V92.79h.08v3Zm.18,0v-3h.1v2.95Zm.19,0v-3l2.16-.26v3Zm2.26-.25v-3h.07v3Zm.17,0v-3h.11v3Zm.21,0v-3L99,92.17v3Zm2.28-.24v-3h.07v3Zm.17,0v-3h.1v3Zm.2,0v-3l2.2-.27v3Zm2.3-.25v-3h.07v3Zm.16,0v-3h.13v3Zm1.4-.15-1.18.13v-3l1.18-.15Zm0-3.15L91.25,93a0,0,0,0,0,0,0v8.33a.08.08,0,0,0,0,0h0l12.1-1.33v.08L91,101.53V92.85l12.32-1.46Zm0-.27L91,92.75l-.22,0,12.59-1.51Zm0-.18L90.51,92.65V86.72l12.85-1.59ZM105.72,200h-2.26V84.87l2.26-.28ZM121.93,67.75l-.17,0h-.17c-.51-.12-.9-.82-.9-1.66a2,2,0,0,1,1.26-2h.21l.1,0a1.59,1.59,0,0,1,.94,1.63A2,2,0,0,1,121.93,67.75Zm.11.06a2.1,2.1,0,0,0,1.25-2.09,1.93,1.93,0,0,0-.65-1.55,1.68,1.68,0,0,1,.83,1.59,2,2,0,0,1-1.26,2A.5.5,0,0,1,122,67.81Zm.37,0v3.52l-.19,0V67.89h0Zm-4.16.36a1.35,1.35,0,0,1-.86,1.39,1.52,1.52,0,0,0,.77-1.42,1.44,1.44,0,0,0-.37-1A1.24,1.24,0,0,1,118.25,68.18Zm-.63,1.41V72l-.19,0V69.66Zm-.53-3.6a.91.91,0,0,1-.23,0h-.09l-.12,0h0a2.1,2.1,0,0,1-1.18-2.15,2.56,2.56,0,0,1,1.64-2.61l.17,0h.11l.12,0a2.06,2.06,0,0,1,1.22,2.11A2.57,2.57,0,0,1,117.09,66Zm0,.08a2.67,2.67,0,0,0,1.69-2.72,2.44,2.44,0,0,0-.92-2,2.11,2.11,0,0,1,1.18,2.1,2.57,2.57,0,0,1-1.64,2.64A1.08,1.08,0,0,1,117.14,66.07Zm.48,0V67h0l-.17,0h0v-.79h0Zm-.42,3.44-.12,0H117a1.11,1.11,0,0,1-.63-1.13,1.34,1.34,0,0,1,.87-1.38h.2a1.1,1.1,0,0,1,.64,1.12A1.35,1.35,0,0,1,117.2,69.54ZM110.87,200h-5.05V84.59l5.05.68Zm13.6,0H111V163.14l13.5-.54Zm0-37.49-13.5.55V133.11l13.5-1Zm0-30.49L111,133V103.06l13.5-1.41Zm0-30.46L111,103V85.22a0,0,0,0,0,0,0l-2.31-.31V73.34l15.85-2.18ZM139.91,200H124.56V183.37l15.35.33Zm0-16.39-15.35-.32V166.46l15.35.62Zm0-16.61-15.35-.63v-16.8l15.35.92Zm0-16.61-15.35-.92V132.64l15.35,1.21Zm0-16.62-15.35-1.22V115.73l15.35,1.52Zm0-16.61-15.35-1.51V98.8l15.35,1.84Zm0-16.61L124.56,98.7V81.9L139.91,84ZM143.14,200H140V183.7l3.13.06Zm0-16.32L140,183.6V167.09l3.13.13Zm0-16.55L140,167V150.48l3.13.19Zm0-16.55-3.13-.18V133.86l3.13.25Zm0-16.56-3.13-.24V117.26l3.13.31Zm0-16.54-3.13-.31V100.65l3.13.37Zm0-16.55-3.13-.37V84l3.13.43ZM144.23,200h-1V183.77l1,0Zm0-16.3-1,0V167.22l1,0Zm0-16.53-1,0V150.67l1,.06Zm0-16.52-1-.06V134.12l1,.08Zm0-16.54-1-.08V117.58l1,.1Zm0-16.52-1-.1V101l1,.12Zm0-16.53-1-.11V84.48l1,.13Zm0-16.53L124.56,81.8V71.15l19.67,3ZM245.42,43.6v6.14l-14.54-3V40.51ZM230.53,181.22V177l13.07.4v4.18l-12.78-.35Zm.24.09v6.27l-15.36.23v-6.19Zm.1,0,14.55.41,0,6.13-14.52-.27Zm-.39-4.42-8.66.19,9-.22,13.18.42h-.34Zm.29-6.39v6.27l-15.21.36h-.15V171Zm-.24-.09v-4.22l13.07.58v4.15l-12.78-.51Zm.34,6.36V170.5l14.55.59,0,6.14Zm-.39-10.68-13.55.43h-.23l14.11-.49,13.61.62-.76,0Zm.29-6.42v6.26l-15.26.53h-.1v-6.17Zm-.24-.09v-4.15l13.07.74v4.09l-12.78-.69Zm.34,6.35v-6.26l14.55.78,0,6.14Zm-.39-10.6-13.55.56-.67,0,14.56-.64,13.75.84-.91,0Zm.29-6.49v6.26l-15.31.68h-.05V149.6Zm-.24-.09V144.6l13.06,1v4.06l-12.77-.89h-.29Zm.34,6.35v-6.26l14.55,1,0,6.14Zm-.39-10.6h0l-13.55.74-.84-.08,14.73-.8,13.94,1-1.1.07Zm12.37-9.34-11.33-1.06h0l0,0v3.75a0,0,0,0,0,0,0l9.4.82-10.08-.84h-.3v-4.09l13.06,1.11v4l-.72-.06h0s0,0,0,0V135.2A0,0,0,0,0,242.85,135.16Zm0,.09v3.57l-.15,0v-3.57Zm-.25,0v3.57l-1.73-.16v-3.58Zm-1.83-.18v3.59l-.13,0V135Zm-.23,0v3.59l-.16,0V135Zm-.26,0v3.58l-2.46-.21v-3.6Zm-2.56-.24v3.6h-.13v-3.6Zm-.22,0v3.6h-.17v-3.61Zm-.26,0v3.61l-2.54-.22v-3.62Zm-2.64-.24v3.62h-.14v-3.63Zm-.23,0v3.63l-.18,0v-3.62Zm-.27,0v3.63l-2.49-.22V134.2ZM230.77,138v6.26l-15.33.83h0v-6.18Zm.1,6.26V138l14.55,1.21,0,6.14Zm-.38-10.54h0l-13.55.84-.92-.09,14.81-1,14,1.25-1.17.08Zm.28-6.57v6.27l-15.34,1h0v-6.18Zm-.24-.08V123l13.07,1.31v4l-12.77-1.25h0Zm.34,6.35v-6.27l14.55,1.43,0,6.14Zm-.38-10.53h0l-13.55,1-1-.1,14.85-1.14,14.08,1.45-1.24.09Zm.28-6.56v6.26l-15.34,1.17h0v-6.18Zm-5.31.24-3.29.26v-3.56l3.29-.27Zm.1,0v-3.63l.2,0v3.64Zm.29,0v-3.61l.11,0v3.57Zm.21,0V113l3.54-.3v3.58Zm16.79-2.72-11.33-1.24h0a.08.08,0,0,0,0,0v3.68l-.63-.07h0l-.3,0v-4l13.08,1.5v3.93l-.71-.08v-3.71A.05.05,0,0,0,242.85,113.82Zm0,.12v3.63l-.16,0V114Zm-1.69-.21,1.53.17h0Zm1.44.27v3.54l-1.73-.19v-3.56Zm-1.83-.31v3.65l-.13,0v-3.65Zm-.22,0v3.62l-.17,0v-3.55Zm-2.09-.25,1.9.2h0Zm1.82.31v3.53l-2.45-.27v-3.55Zm-2.55-.4V117l-.13,0v-3.64Zm-.23,0V117l-.18,0v-3.56Zm-.27,0v3.55l-2.54-.28v-3.57Zm-2.64-.38v3.64h-.13V113Zm-.23,0v3.63l-.16,0V113Zm-.25,0v3.56l-2.5-.28v-3.57Zm-3.19,9.56v-6.26L245.42,118l0,6.14Zm-.38-10.47h0l-13.55,1.14-1.06-.14,14.95-1.27,14.12,1.68-1.28.1Zm.28-6.62v6.26l-15.36,1.31h0v-6.19ZM218,106.57v-3.64l.11,0v3.59Zm.18-3.68,3.43-.33v0Zm3.43-.21v3.56l-3.4.31V103Zm.09,3.55v-3.67l.18,0v3.68Zm.28,0v-3.66l.11,0v3.62Zm.21,0V102.6l3.29-.32v3.61Zm3.39-.31v-3.69l.19,0v3.69Zm.29,0v-3.68l.11,0v3.64Zm.2,0v-3.62l3.55-.34v3.64Zm16.8-2.6-11.33-1.46h0a.08.08,0,0,0,0,0v3.66l-.63-.08h0l-.3,0v-4l13.08,1.72V107l-.71-.09v-3.65A.05.05,0,0,0,242.85,103.24Zm0,.11v3.58l-.15,0v-3.52Zm-.25,0v3.51l-1.74-.22v-3.52Zm-1.84-.33v3.61l-.11,0v-3.6Zm-.21,0v3.58l-.17,0v-3.53Zm-.27,0v3.51l-2.46-.32v-3.52Zm-2.55-.43v3.61l-.14,0v-3.6Zm-.23,0v3.59l-.17,0v-3.54Zm-.27,0v3.54l-2.54-.33v-3.54Zm-2.64-.41v3.61l-.13,0v-3.61Zm-.23,0v3.6l-.17,0v-3.55Zm-.26,0v3.54l-2.49-.32V102Zm-3.18,9.49v-6.26l14.55,1.85,0,6.14Zm-.38-10.46h0l-13.55,1.3-1.09-.14,15-1.45L245,102.91l-1.38.13Zm.28-6.64v6.26l-15.36,1.49h0V96.23ZM218,95.87V92.26l.11,0v3.57Zm.21,0V92.29l3.38-.35v3.57Zm3.47-.35V91.86l.2,0v3.64Zm.3,0V91.84l.13,0v3.59Zm.23,0V91.87l3.28-.33v3.57Zm3.38-.35V91.45l.19,0v3.65Zm.28,0V91.44l.11,0v3.6Zm.2,0V91.48l3.55-.38v3.59Zm16.8-2.43L231.52,91h0a.08.08,0,0,0,0,0v3.61l-.63-.09h0l-.3,0v-4l13.07,1.89v3.84l-.7-.1V92.67A.05.05,0,0,0,242.85,92.62Zm0,.12v3.51l-.15,0V92.78Zm-2-.3h0l1.81.26h0Zm1.73.35v3.42L240.82,96V92.53Zm-1.82-.37V96l-.13,0V92.4Zm-.23,0v3.53l-.17,0V92.44Zm-1.29-.2,1.08.15h0Zm1,.25v3.44l-2.45-.35V92.08ZM237.68,92v3.55l-.11,0V92Zm-.21,0V95.5l-.18,0V92Zm-.27,0v3.47l-2.56-.36V91.61Zm-2.65-.46v3.56l-.13,0V91.51Zm-.23,0v3.55l-.17,0v-3.5Zm-.27,0V95l-2.49-.35V91.18Zm-3.18,9.4V94.67l14.55,2v6.16Zm-.38-10.4h0L216.93,92l-1.14-.17,15-1.59,14.26,2.1-1.42.14Zm.28-6.69V90.1l-15.36,1.63h0V85.54ZM218,85.16V81.57l.11,0v3.54Zm.17-3.63h0l3.44-.39h0Zm3.43-.29v3.52l-3.4.38V81.62Zm.1,3.51V81.13l.18,0v3.62Zm.28,0v-3.6l.11,0v3.55Zm.17-3.64h0l2.34-.27Zm3.34-.29v3.54l-3.31.37V81.17Zm.1,3.53V80.69l.19,0V84.3Zm.28,0V80.68l.1,0v3.57Zm.2,0V80.72l3.55-.4v3.55ZM242.85,82,231.52,80.2h0a.08.08,0,0,0,0,0v3.58l-.63-.09h0l-.29,0V79.84l13.06,2.08v3.79l-.7-.11V82.06A0,0,0,0,0,242.85,82Zm0,.11v3.46l-.16,0V82.17Zm-1.36-.24,1.18.19h0Zm1.11.27v3.39l-1.74-.27v-3.4Zm-1.83-.39v3.5l-.13,0v-3.5Zm-.23,0v3.48l-.17,0V81.8Zm-2.71-.45h0l2.52.4h0Zm2.45.5v3.39l-2.45-.38V81.4Zm-2.55-.52V84.8l-.13,0V81.27Zm-.22,0v3.49l-.18,0V81.31Zm-2.83-.46h0l2.62.42h0Zm2.55.5v3.41l-2.55-.4V80.9Zm-2.64-.53v3.53l-.12,0V80.76Zm-.22,0v3.51l-.18,0V80.81Zm-2.69-.45,2.49.4h0Zm2.41.5v3.41l-2.48-.38V80.4Zm-3.17,9.28V83.84l14.55,2.25v6.15Zm-.38-10.36h0l-13.55,1.57-1.19-.21,15.08-1.75,14.3,2.31-1.46.18Zm.28-6.75v6.27L215.41,81V74.86ZM218,74.45V70.91l.12,0v3.49Zm.17-3.58h0l3.43-.42h0Zm3.42-.33V74l-3.38.41V71Zm.1,3.46V70.43l.2,0V74Zm.29,0V70.42l.11,0V74Zm.17-3.6h0l3.33-.41h0Zm3.33-.31v3.48l-3.3.4V70.46Zm.1,3.47V69.94l.2,0v3.59Zm.29,0V69.94l.11,0v3.5Zm.19-3.59,0,0,3.61-.45v0Zm3.56-.35V73l-3.55.43V70Zm13.25,1.79-8.48-1.46h0l-2.85-.49h0a.08.08,0,0,0,0,0V73l-.63-.11h0l-.29,0V69l13.06,2.29v3.72l-.7-.11V71.4A.05.05,0,0,0,242.85,71.35Zm-2-.21v0l1.85.32-.07,0Zm1.74.4v3.34l-1.74-.3V71.23Zm.09,0,.15-.06v3.45l-.15,0Zm-1.93-.45v3.49l-.13,0V71.06Zm-2.95-.47v0l2.59.44-.09,0Zm2.47.54v3.34l-2.47-.42V70.7Zm.09,0,.16-.06v3.45l-.16,0Zm-2.65-.58v3.49l-.13,0V70.54Zm-3-.49v0l2.67.46-.09,0Zm2.55.55V74l-2.55-.43V70.17Zm.09,0,.17-.06V74l-.17,0ZM234.55,70v3.5l-.14,0V70Zm-3-.49v0l2.61.45-.09,0Zm2.49.55v3.36L231.56,73v-3.4Zm.1,0,.16,0v3.47l-.16,0Zm-3.28,9.2V73l14.55,2.46v6.15Zm-.38-10.32h0l-13.55,1.7-1.22-.23,15.11-1.89,14.32,2.54-1.48.18Zm.28-6.77v6.26l-15.36,1.92V64.17ZM218,63.74v-3.5l.11,0v3.44Zm.17-3.53,0,0,3.45-.46v0Zm3.42-.36v3.42l-3.39.44V60.3Zm.1,3.41V59.72l.19,0v3.53Zm.28,0V59.71l.12,0V63.2Zm.18-3.55h0l3.35-.44h0Zm3.33-.36v3.45l-3.3.43V59.76Zm.1,3.44V59.2l.19,0v3.54Zm.29,0V59.19l.11,0V62.7Zm.2,0V59.23l3.55-.47v3.46Zm16.81-1.91-2.31-.44h0l-6.19-1.17h0l-2.84-.53h0s0,0,0,0v3.51l-.63-.12h0l-.29,0V58.27l13.07,2.44v3.72l-.7-.13V60.81S242.88,60.77,242.86,60.77Zm-2.05-.25v0l1.85.35,0,0Zm1.75.42v3.3l-1.75-.33v-3.3Zm.1,0,.14,0v3.4l-.14,0Zm-1.94-.47v3.43l-.13,0V60.44Zm-2.94-.53v0l2.56.48-.07,0Zm2.45.57v3.3l-2.45-.45V60Zm.1,0,.17-.05v3.41l-.17,0Zm-2.65-.6v3.44l-.13,0V59.86Zm-3-.55v0l2.66.51-.07,0Zm2.55.59v3.31l-2.55-.47V59.44Zm.1,0,.16-.05v3.42l-.16,0Zm-2.75-.62v3.45l-.14,0V59.27Zm-3-.55v0l2.6.49-.07,0Zm2.48.59v3.32l-2.48-.46V58.85Zm.1,0,.17,0v3.43l-.17,0Zm-3.27,9.1V62.17l14.55,2.69V71Zm-.38-10.27h0L216.93,60l-1.23-.23,15.12-2.08,14.35,2.73-1.51.21Zm.28-6.82V57.6l-15.36,2.11V53.53ZM218,53.06V49.59l.11,0v3.43Zm3.59-3.91v3.4l-3.38.48v-3.4Zm-3.27.37,3.27-.48h0Zm3.37,3V49l.2,0v3.51Zm.3,0V49l.1,0v3.44Zm3.5-3.92V52l-3.3.47V49.05Zm-1.39.1,1.39-.2h0ZM225.57,52V48.47l.19,0V52Zm.29-.05v-3.5l.1,0v3.46Zm.19,0V48.49L229.6,48v3.43Zm16.81-1.75-2.31-.47h0l-3-.63h0l-6-1.22s0,0,0,0,0,0,0,0v3.48l-.63-.13h0l-.28,0V47.47l13.06,2.63v3.66l-.7-.14v-3.4S242.88,50.17,242.86,50.17Zm-.06.11V53.6l-.15,0V50.32Zm-2-.41v0l1.82.37h0Zm1.73.45v3.24l-1.73-.35V50Zm-1.83-.49v3.36l-.13,0V49.8Zm-.23,0v3.34l-.16,0V49.85Zm-2.72-.56v0l2.56.52h0Zm2.46.6V53.1l-2.46-.49V49.34Zm-2.55-.64v3.38l-.13,0V49.18Zm-.23,0v3.37l-.16,0v-3.3Zm-2.82-.56v0l2.65.54-.06,0Zm2.56.61V52.5L234.63,52V48.72Zm-2.65-.67V52l-.11,0V48.54Zm-3-.57v0l2.62.54-.08,0Zm2.49.61v3.28l-2.49-.5V48.09Zm.09,0,.19-.06v3.39l-.19,0Zm-3.27,9V51.35l14.55,2.87v6.15Zm-.38-10.25h0l-14.22,2.1-1.05-.25v-.06l15.63-2.29,14.36,2.93-1.56.23Zm-29.25,133v-.22l9.79.26h0a.05.05,0,0,0,0,0v-3.86a0,0,0,0,0-.05,0l-9.79-.33v-.23l10.42.34v4.36l-9.92-.25Zm.45.08V187h-.45v-6.55Zm-.45-.4v-3.82l2.56.08v3.81Zm2.65.07v-3.8h.16v3.81Zm.26,0v-3.81h.15v3.8Zm.24,0v-3.81l2.8.09v3.79Zm2.89.07v-3.78h.15v3.79Zm.25,0v-3.78h.17v3.79Zm.27,0v-3.78l2.92.09v3.77Zm3,.08v-3.77H211v3.76Zm.21-11h0l0,0v-3.89a0,0,0,0,0,0,0l-9.78-.44v-.26l10.41.49v4.32l-9.91-.39h0l-.49,0v-.2Zm-9.78-.5V165l2.55.11v3.79Zm2.64.11v-3.79h.17v3.79Zm.26,0v-3.79h.15V169Zm.24,0v-3.79l2.8.13v3.77Zm2.9.12V165.3h.15v3.77Zm.25,0v-3.78h.16v3.77Zm.26,0v-3.78l2.93.13v3.77Zm3,.12v-3.76H211v3.76Zm.19-11h0a0,0,0,0,0,0,0V154.3a0,0,0,0,0,0-.05l-9.78-.58v-.26l10.44.63v4.28l-9.94-.53h0l-.49,0v-.15Zm-9.77-.63v-3.81l2.53.15v3.8Zm2.62.14v-3.8h.19v3.8Zm.28,0v-3.8h.15v3.8Zm.25,0V154l2.78.17v3.79Zm2.88.16v-3.79h.17v3.79Zm.27,0v-3.79h.14v3.78Zm.24,0v-3.79l2.94.18v3.77Zm3,.17v-3.78H211v3.78Zm.19-11h0a0,0,0,0,0,0,0V143.2a.07.07,0,0,0,0,0l-9.78-.72v-.26l10.43.78v4.23l-9.93-.67h0l-.49,0v-.13Zm-9.77-.76v-3.8l2.56.19v3.78Zm2.65.18v-3.79H204v3.79Zm.25,0v-3.79h.15v3.79Zm.25,0v-3.78l2.79.21v3.76Zm2.88.2V143h.16v3.77Zm.26,0V143l.17,0v3.76Zm.27,0V143l2.92.22V147Zm3,.2v-3.75l.16,0V147ZM211,98.69l-9.78-1.31v-.23l10.43,1.38v4l-.61-.07V98.74A.05.05,0,0,0,211,98.69Zm-.05.1v3.7l-.17,0V98.82Zm-.26,0v3.64l-2.91-.37V98.42Zm-3-.47v3.73l-.16,0V98.32Zm-.26,0V102l-.17,0V98.35Zm-.26,0V102l-2.79-.36V98Zm-2.89-.46v3.75l-.14,0V97.87Zm-.24,0v3.73l-.18,0V97.91Zm-.27,0v3.66l-2-.26h0l-.49.06V97.56Zm-2.09,3.5V108l-.45,0v-6.54Zm0,6.65,13,1.53-2.92.26v-.26s0,0,0,0l-10.48-1.24v-.2Zm9.94,1.57v4.09l-.59-.07v-3.81a0,0,0,0,0,0,0l-9.8-1.15v-.25Zm-.68.26v3.75l-.19,0v-3.69Zm-.29,0v3.68l-2.91-.33v-3.7Zm-3-.44v3.78l-.16,0v-3.78Zm-.25,0v3.77l-.17,0V109.5Zm-.26,0v3.72l-2.8-.32v-3.72Zm-2.89-.4v3.79h-.15v-3.8Zm-.24,0v3.77h-.17v-3.73Zm-.27,0v3.71l-2-.23h0l-.49.07v-3.86Zm-2.09,3.59v6.56l-.45,0v-6.54Zm0,6.65,12.89,1.34-2.86.22v-.22a0,0,0,0,0,0,0l-10.48-1.1v-.16Zm9.94,1.39v4.13l-.61-.06V121s0,0,0,0l-9.78-1v-.23Zm-.7.27v3.79l-.15,0V121Zm-.25,0v3.79l-2.94-.28v-3.82Zm-3-.32v3.82l-.16,0v-3.82Zm-.26,0v3.82h-.15v-3.82Zm-.24,0v3.82l-2.8-.27v-3.85Zm-2.89-.31v3.85l-.16,0v-3.85Zm-.25,0v3.85h-.16v-3.85Zm-.26,0v3.85l-2-.2h0l-.49.06v-4Zm-2.1,3.75v6.56l-.45,0v-6.54Zm0,6.65,12.81,1.13-2.78.19v-.18a0,0,0,0,0,0-.05l-10.48-.94v-.11Zm9.94,1.18V136L211,136h0a0,0,0,0,0,0,0v-3.85a0,0,0,0,0,0-.05l-9.78-.87v-.26Zm-.7.29v3.75h-.16v-3.76Zm-.26,0v3.75l-2.92-.25v-3.76Zm-3-.27v3.77l-.16,0v-3.77Zm-.25,0v3.78l-.17,0V131.8Zm-.26,0v3.77l-2.79-.23v-3.79Zm-2.89-.25v3.78h-.15v-3.79Zm-.24,0v3.79h-.16V131.5Zm-.26,0v3.79l-2.55-.22v-3.8Zm6.1,4.4-8.15-.68h0l-.49,0v-.08Zm-8.2-.58v6.56h-.45v-6.54Zm0,6.65,12.67.94-2.64.15v-.15a.07.07,0,0,0,0-.05l-10.48-.78V142Zm0,4.65v6.56h-.45v-6.54Zm0,6.65,12.57.74-2.53.13V154a0,0,0,0,0,0-.05l-10.49-.64v0Zm0,4.63v6.56l-.45,0v-6.54Zm0,6.66,12.27.54-2.25.09v-.07a0,0,0,0,0-.05-.05l-10.46-.49h.49Zm10,11.62-10.11-.32h.13l11.67.35-1.64,0h0A0,0,0,0,0,211.71,176.17Zm-10-7v6.56h-.45v-6.54Zm.1,11.29,13.31.34v6.44L201.79,187Zm12.91.23-2.94-.07v-4.31l2.94-.07Zm-12.91-5v-6.56l13.31.52v6.44Zm12.91-6.15-2.95-.12v-4.2l2.95-.12Zm-12.91-5.15v-6.56l13.31.71V165Zm12.91-6-2.93-.15v-4.1l2.93-.16Zm-12.91-5.31v-6.56l13.31.9V154Zm12.9-5.79-2.93-.19v-4.05l2.93-.16Zm-12.9-5.51v-6.56l13.31,1.11v6.44Zm12.9-5.58-2.93-.25v-4l2.93-.2Zm-12.9-5.72V124l13.31,1.3v6.44Zm12.91-5.4-2.94-.28V121l2.94-.23Zm-12.91-5.9v-6.56l13.31,1.5v6.44Zm12.91-5.2-2.94-.33V110l2.94-.26ZM201.79,108v-6.56l13.31,1.7v6.44Zm10-5.38V98.89l2.94-.28V103Zm0-3.8v-.32a0,0,0,0,0,0,0l-10.48-1.38v-.25l.49,0,13,1.74ZM211,87.6l-9.78-1.47v-.24l10.42,1.53v4l-.6-.09V87.64A0,0,0,0,0,211,87.6Zm-.06.1v3.63l-.16,0V87.72Zm-.26,0V91.3l-2.91-.42V87.27Zm-3-.53v3.68l-.16,0V87.17Zm-.25,0v3.66l-.16,0V87.18Zm-.26,0V90.8l-2.78-.4V86.78Zm-2.88-.49v3.69l-.16,0v-3.7Zm-.25,0v3.68l-.16,0V86.69Zm-.26,0v3.62l-2-.29h0l-.49.06V86.31Zm-2.1,3.43v6.56l-.45,0V90.18Zm.1,6.56V90.12L215.1,92v6.44Zm10-5.23V87.84l2.94-.33v4.36Zm0-3.71v-.36a.07.07,0,0,0,0,0l-10.48-1.54v-.28l.49,0,13.05,1.92ZM211,76.46l-9.79-1.59v-.23l10.42,1.7v3.94l-.59-.1V76.51A.07.07,0,0,0,211,76.46Zm-.06.11v3.6l-.17,0V76.59Zm-.27,0v3.54l-2.91-.46V76.12Zm-3-.57v3.64l-.16,0V76Zm-.25,0v3.63l-.17,0V76Zm-.27,0v3.56l-2.78-.44V75.56Zm-2.88-.56v3.67l-.15,0V75.44Zm-.24,0v3.65l-.16,0V75.48Zm-.22,0h0L201.24,75h0Zm0,.09v3.57l-2-.32h0l-.49,0V75.06Zm-2.1,3.35v6.56l-.45,0V78.88Zm.1,6.56V78.83l13.31,2.08v6.44Zm12.91-4.64-2.94-.46V76.75l2.94-.33Zm-2.94-4.1v-.36a0,0,0,0,0,0,0l-10.48-1.71v-.27l.49-.07,13.07,2.11ZM211,65.34l-9.78-1.73v-.22l10.42,1.86v3.89l-.6-.11V65.38A0,0,0,0,0,211,65.34Zm-.05.1V69l-.17,0V65.48Zm-3.15-.57,3,.52h0Zm2.88.61V69l-2.91-.49V65Zm-3-.63v3.61l-.14,0V64.82Zm-.24,0v3.6l-.18,0V64.85Zm-3.06-.55h0l2.84.49h0Zm2.78.59v3.51l-2.78-.47V64.36Zm-2.87-.61v3.63l-.15,0V64.22Zm-.25,0v3.62l-.17,0V64.26Zm-.2,0h0l-2.58-.45h0Zm-.06.09v3.53l-2-.35h0l-.49.1V63.81Zm-2.1,3.29v6.56l-.45.07V67.64Zm.1,6.56V67.55l13.31,2.27v6.44Zm12.91-4.46-2.94-.5V65.69l2.94-.38Zm-2.94-4.06v-.38a.07.07,0,0,0,0,0l-10.48-1.87V63l.49-.07,13.1,2.3ZM211,54.23l-9.78-1.88v-.22l10.42,2V58l-.6-.11V54.28A0,0,0,0,0,211,54.23Zm-.06.1v3.52l-.15,0V54.36Zm-.25,0V57.8l-2.92-.53V53.81Zm-2.92-.65h0l.76.14Zm-.09,0v3.56l-.17,0V53.66Zm-.26,0V57.2l-.17,0V53.7Zm-3.05-.6h0l2.86.55h0Zm2.79.64v3.45l-2.79-.51V53.16ZM204.29,53v3.59l-.15,0V53Zm-.24,0v3.56l-.17,0V53.05Zm-.17-.06,0,0-2.6-.51h0Zm-.09.1v3.47l-2-.37h0l-.49.09V52.56Zm-2.1,3.2v6.56l-.45.07V56.34Zm.1,6.56V56.25l13.31,2.46v6.44Zm12.9-4.27L211.75,58V54.62l2.94-.4Zm-2.94-4v-.44a.05.05,0,0,0,0,0l-10.47-2v-.35l.49-.08,13.12,2.51Zm0-11.58-10.48-2.15v-.57L214.82,43l-3.07.43V43A0,0,0,0,0,211.72,42.94Zm-.06.09v3.8l-.6-.12V43.17a0,0,0,0,0,0,0l-9.78-2v-.21Zm-.7.2v3.46l-.15,0v-3.4Zm-.85-.2.65.14h0Zm.6.23v3.38l-2.92-.58V42.65Zm-3-.73V46l-.15,0V42.5Zm-.25,0V46l-.17,0V42.53Zm-3.05-.64h0l2.84.59h0Zm2.78.67v3.41l-2.78-.56V42Zm-2.87-.7v3.53l-.16,0V41.8Zm-.26,0v3.51l-.16,0V41.83Zm-.19-.06h0l-2.59-.52v0Zm-.06.09v3.43l-2-.41h0l-.49.1V41.32ZM201.69,45v6.55l-.45.07V45Zm.1,6.56V45l13.31,2.66v6.44Zm10-4.67v-3.3l3.34-.48h.08l0,0v-.16l15.59-2.37v6.26L215.2,49.05V47.58a0,0,0,0,0,0,0ZM229.4,33.34l6,1.35v2.56l-6-1.31Zm-6.15,1,6.05-1v2.57l-.28-.06v-.72a.05.05,0,0,0,0-.05l-3.63-.78h0l-2,.31h-.07Zm5.68.87v.66l-3.53-.77v-.65Zm-3.63-.77V35l-1.71-.37Zm-3.48-20.55.69,0V34.43l-.69-.15ZM214.56,32.8l29.26,6.38v4l-13-2.76h0l-15.64,2.38v-6.3s0,0,0,0l-.59-.13Zm-.1,0v3.48l-9.26-2Zm.63,3.72V43L181.8,36.12V29.41ZM194.45,180.2l-12.7-.33h-.18v-4.55l12.2.34h.68Zm1.31.13v6.6l-14-.26V180ZM163,39.32l.13,0,.07,0-.15,0Zm0,.11V183.77h-.15V39.38Zm-.41-9.28,3.19-.58V32l-2.7.47a0,0,0,0,0,0,0v.91l-.45.08Zm0-.09h0l3.27-.58h0Zm17.64,7.25h0l-3.61.6h0l-10.8,1.77s0,0,0,0v3.72l-.92.15v-4l16.63-2.69v4l-1.2.2V37.35Zm-3.41.66h0l3.36-.55h0Zm3.33-.45v3.61l-3.28.53v-3.6Zm-3.38.53v3.62l-.14,0V38Zm-.23,0v3.71l-.21,0V38Zm-3.67.62h0l3.41-.56v0Zm3.37-.45v3.59l-3.34.53V38.72Zm-3.44.53v3.61l-.14,0V38.66Zm-.23-.05v3.7l-.2,0V38.69Zm-3.56.61H169l3.32-.55h0Zm3.26-.46v3.59l-3.23.52V39.36Zm-3.33.55v3.58l-.15,0V39.3Zm-.24-.06V43l-.21,0V39.32Zm-2.66.45h0l2.39-.39h0Zm2.35-.3V43l-2.32.37V39.83Zm-2.41.38V43.4l-.15,0V39.78ZM181.7,41v6.71l-18.51,2.84V44ZM193,39.42l-10.69-2.18h0a.05.05,0,0,0,0,0V41l-.49-.1h0l-.17,0v-4l12.87,2.62v3.91L193,43.13V39.46S193,39.42,193,39.42Zm-3.34-.56v0l3.14.65-.07,0Zm3,.73v3.47l-3-.6V39Zm.09,0,.17,0v3.58l-.17,0Zm-3.21-.76v3.62l-.15,0V38.78Zm-3.43-.68v0l3,.61-.07,0Zm2.93.7v3.5l-2.93-.59V38.24Zm.09,0,.16-.05v3.6l-.16,0ZM186,38.1v3.63l-.18,0V38.06Zm-3.68-.72v0l3.26.66-.06,0Zm3.15.74v3.51L182.35,41V37.47Zm.1,0,.16,0v3.61l-.16,0Zm-5.36,10.71h0L165.81,51a.07.07,0,0,0,0,0v3.77l-.93.14V50.94l16.63-2.52v4.1l-1.21.18V48.86A.08.08,0,0,0,180.24,48.82Zm-3.39.62h0l3.34-.51v0Zm3.31-.41v3.68l-3.28.49V49.53Zm-3.37.49v3.7l-.14,0V49.48Zm-.23-.05v3.78l-.21,0V49.5Zm-3.67.58h0l3.41-.52h0Zm3.37-.43v3.67l-3.34.5V50.15Zm-3.44.52v3.67l-.14,0V50.09Zm-.23-.06v3.76l-.2,0V50.12Zm-3.57.56h0l3.28-.51h0Zm3.27-.41v3.65l-3.23.49V50.73Zm-3.33.49v3.66l-.15,0V50.69Zm-.24,3.7-.2,0V50.71l.2,0Zm-.3-3.6v3.64l-2.32.35V51.18Zm-2.42.36v3.64l-.13,0v-3.7Zm15.7,1.4v6.71l-18.51,2.62V55.33Zm-1.46,7.77h0l-14.4,2a0,0,0,0,0,0,0v3.82l-.92.13V62.29L181.47,60V64.1l-1.22.16V60.39S180.25,60.36,180.24,60.35Zm-3.39.57h0l3.33-.47h0Zm3.31-.37v3.73l-3.26.44V61ZM176.8,61v3.73l-.14,0V61Zm-.24-.06v3.82l-.2,0V61Zm-.3.13v3.73l-3.35.46V61.56Zm-3.44.48v3.72l-.14,0V61.52Zm-.23,0v3.79l-.19,0v-3.8Zm-3.4.48,3.11-.44h0Zm3.11-.34v3.69l-3.24.45V62.12Zm-3.34.45v3.7l-.14,0V62.08Zm-.24,0v3.77l-.2,0V62.1Zm-.29.12v3.69l-2.32.32V62.53Zm-2.42.34v3.69l-.15,0V62.49Zm15.69,1.63v6.71l-18.51,2.41V66.7Zm-1.46,7.72,0,0-14.4,1.88s-.05,0-.05.05v3.84l-.91.11V73.63l16.63-2.14v4.17l-1.22.15v-3.9S180.25,71.88,180.24,71.88Zm-.08.18v3.76l-3.26.41V72.48Zm-3.36.42v3.76l-.14,0V72.44Zm-.24,0v3.83l-.2,0V72.46Zm-3.65.57,3.35-.45v3.75l-3.35.42Zm0-.09Zm-.06.08v3.74l-.13,0V73Zm-.23,0v3.82l-.2,0V73Zm-.29.13v3.73l-3.24.4v-3.7Zm-3.33.43v3.72l-.16,0V73.47Zm-.25-.05v3.8l-.21,0v-3.8Zm-.3.12v3.71l-2.31.29v-3.7Zm-2.41.3V77.6l-.16,0V73.85Zm15.69,1.85v6.7l-18.51,2.2V78.05Zm-1.47,7.67h0L165.82,85.1a0,0,0,0,0,0,.05v3.91l-.93.1V85l16.63-2v4.22l-1.23.14v-4S180.24,83.41,180.23,83.4Zm-.6.15.52-.06h0Zm.52,0V87.4l-3.25.37V84ZM176.8,84v3.82l-.14,0V83.93Zm-.24,0v3.89l-.21,0v-3.9Zm-.3.11v3.82l-3.34.38v-3.8Zm-3.44.4v3.81l-.13,0V84.4Zm-.23,0v3.88l-.21,0V84.42Zm-.3.11v3.81l-3.22.37V84.89Zm-3.32.39v3.8l-.16,0V84.86Zm-.26,0v3.87l-.2,0V84.88Zm-.29.11v3.79l-2.3.27V85.23Zm-2.4.27V89h-.15V85.21Zm15.68,2.09V94l-18.51,2V89.45Zm-1.46,7.6h0l-3.6.38h0L165.8,96.44a0,0,0,0,0,0,0v3.94l-.92.09V96.33h0l16.63-1.77v4.26l-1.22.13V95S180.25,94.93,180.24,94.92Zm-.08.17V99l-3.27.33V95.42Zm-3.36.33V99.3l-.15,0V95.4Zm-.25,0v3.94l-.2,0V95.42Zm-.3.11v3.86l-3.33.34V95.85Zm-3.42.34v3.87h-.14v-3.9Zm-.24,0v3.91l-.21,0V95.84Zm-.31.1v3.84l-3.22.33V96.27Zm-3.31.34v3.84h-.15V96.23Zm-.24,0v3.89l-.22,0v-3.9Zm-.31.12v3.81l-2.3.23V96.58Zm-2.4.23v3.82l-.16,0V96.55ZM181.7,98.9v6.7l-18.51,1.76v-6.58Zm-1.47,7.56h0l-14.4,1.38a0,0,0,0,0,0,0v3.93h0l-.92.08v-4.22l16.63-1.58v4.32l-1.22.11h0v-4A.08.08,0,0,0,180.23,106.46Zm-.08.09v3.93l-3.26.29v-3.91Zm-3.35.32v3.91h-.15v-3.9Zm-.24,0v3.9l-.2,0v-3.9Zm-.3,0v3.89l-3.35.3v-3.87Zm-3.45.33v3.87l-.13,0v-3.88Zm-.23,0v3.87l-.18,0V107.3Zm-.28,0v3.88l-3.25.29v-3.85Zm-3.34.33v3.85h-.16v-3.85Zm-.25,0v3.85l-.19,0v-3.85Zm-.29,0v3.84l-2.32.21V107.9Zm-2.41.23v3.83h-.15v-3.83Zm15.69,2.58v6.71l-18.51,1.52v-6.58Zm0,11.58v6.71l-18.51,1.32v-6.58Zm-16.86,1.22V119l16.63-1.38V122Zm16.86,10.35v6.71l-18.51,1.12v-6.58Zm-16.86,1v-4.34l16.63-1.18v4.4Zm16.86,10.54v6.71l-18.51.88v-6.58Zm-16.86.83v-4.34l16.63-1v4.45ZM181.7,156.8v6.71l-18.51.68v-6.58Zm-16.86.64V153l16.63-.81v4.49Zm16.86,10.94v6.71l-18.51.47V169Zm-16.86.45v-4.45l16.63-.6v4.51Zm0,6.79h-.09l17-.43,10.83.34-11.05-.3Zm16.64-.3v4.55l-16.63.36v-4.51Zm-16.72-6.48-1.59,0v-4.6l1.59.08Zm0-11.39-1.59.06v-4.6l1.59.13Zm0-11.4-1.59.09v-4.57l1.59.13Zm0-11.36-1.59.11v-4.6l1.59.13Zm0-11.39-1.59.12v-4.6l1.59.18Zm0-11.4-1.59.14v-4.57l1.59.19Zm0-11.37-1.59.16V96.13l1.59.19Zm0-11.36-1.59.19V84.73l1.59.24Zm0-11.42-1.59.2V73.38l1.59.24Zm0-11.36-1.59.22V62l1.59.25Zm0-11.38-1.59.23V50.63l1.59.3Zm0-11.41-1.59.26V39.42l.32-.07,1.27.22Zm-1.59,132.06,1.59.06v4.51l-1.59,0Zm0,4.7L181.7,180v6.7l-18.51.27Zm18.61-5.27v-6.71l14,.57v6.59Zm12.64-6.29-12.69-.52h-.18v-4.51l12.2.56.67,0Zm-.67-4.56-12.23-.56-16.71.6-.63,0,17.55-.64,12.91.6Zm-12-.73V156.8l14,.77v6.59Zm12.64-6.11-12.69-.69h-.18v-4.48l12.2.75h0l.66,0Zm-.67-4.52-12.24-.75h0l-16.69.82-.91-.07,17.83-.85,13.15.8Zm-12-.95v-6.7l14,1v6.6ZM194.43,146l-12.68-.88h-.18v-4.45l12.22.94h0l.63,0Zm-.64-4.48-12.25-.94h0l-16.69,1-1-.08,17.93-1.09,13.36,1Zm-12-1.18v-6.71l14,1.17v6.59Zm3.69-6.59-3.13-.28v-3.89l3.13.3Zm.1,0v-3.88l.17,0v3.88Zm.27,0v-3.88l.17,0v3.87Zm.26,0V130l2.93.27v3.87Zm3,.28v-3.87l.16,0v3.86Zm.26,0v-3.86h.15v3.86Zm.25,0v-3.86l3,.29v3.84Zm3.11.28v-3.84H193v3.85Zm1.67.18-1.4-.11v-3.94a0,0,0,0,0,0-.05l-10.69-1h0l0,0v4a0,0,0,0,0,0,0l2.17.2-2.72-.23h-.18v-4.39l12.2,1.1h0l.67,0Zm-.67-4.44-12.22-1.1h0l-16.71,1.18-1.07-.09,18-1.28,13.46,1.19Zm-12-1.38v-6.71L193,123.15h0l2.77.27V130Zm.56-6.82v-3.89l3.12.33v3.88Zm3.22.33v-3.88l.18,0v3.88Zm.27,0v-3.88l.17,0v3.88Zm.27,0v-3.88l2.93.32v3.86Zm3,.31V118.8l.16,0v3.86Zm.26,0v-3.86l.17,0v3.85Zm.26,0v-3.85l3,.32,0,3.84Zm3.09-3.52.19,0v3.84l-.17,0Zm1.69,4-1.41-.14v-3.89a0,0,0,0,0,0,0L182.31,118s0,0,0,0,0,0,0,0v4s0,0,0,0l-.52,0h0l-.18,0v-4.36l12.18,1.26h0l.69,0Zm-.7-4.41-12.21-1.26h0l-16.69,1.38-1.2-.13,18.11-1.49,13.52,1.39ZM181.8,117.2v-6.71l14,1.55v6.59Zm.56-6.74v-3.91l3.13.36v3.89Zm3.22.35v-3.89l.18,0v3.89Zm.28,0V107l.16,0v3.89Zm.26,0V107l2.93.34v3.88Zm3,.34v-3.88l.16,0v3.88Zm.26,0v-3.88l.15,0v3.88Zm.25,0v-3.88l3,.34v3.87Zm3.11.34v-3.86l.18,0v3.86Zm1.67.19-1.4-.16v-3.92a0,0,0,0,0,0,0l-10.69-1.23h0a.08.08,0,0,0,0,0v4l-.51-.06h-.18v-4.31l12.19,1.46h0l.67,0Zm-.68-4.35L181.54,106h0l-16.69,1.58-1.25-.15,18.16-1.72,13.58,1.63Zm-12-1.84V98.9l14,1.8v6.59Zm3.69-10.13v3.8l-3.13-.41V95.06ZM182.36,95h0l1.49.2Zm3.22,4.32V95.48l.18,0v3.87Zm.28,0V95.44l.16,0v3.89Zm.26,0V95.57l2.93.38v3.78Zm3,.39V96l.17,0v3.85Zm.27,0V95.92l.16,0V99.8Zm.25,0V96l3,.4v3.77Zm3.11.4V96.43H193v3.82Zm1.68.22-1.4-.18V96.37a0,0,0,0,0,0-.05l-10.69-1.46h0a.06.06,0,0,0,0,0v4l-.52-.06h-.18V94.56l12.21,1.62h0l.66-.07Zm-.67-4.35-12.24-1.62h0l-16.69,1.77-1.26-.15,18.17-2,13.65,1.8ZM181.8,94v-6.7l14,2v6.6Zm3.67-10v3.7l-3.12-.44V83.58Zm-1.15-.27,1.22.18h0Zm1.25,4V84l.19,0v3.78Zm.28,0V84l.17,0v3.79Zm.27,0V84.11l2.92.43v3.7Zm3,.42V84.54l.19,0v3.77Zm.28,0V84.5l.16,0v3.79Zm3.25-3.22v3.67l-3-.42V84.63ZM191,84.73l1.69.24h0Zm1.72,4v-3.7l.17,0v3.75Zm1.69.23-1.42-.2V85a.07.07,0,0,0,0,0l-10.68-1.52h0s0,0,0,0v3.85l-.5-.07h0l-.17,0V83l12.2,1.79h0l.67-.08Zm-.67-4.27-12.24-1.79h0l-16.71,1.95-1.32-.19,18.25-2.16,13.7,2Zm-12-2.28V75.73l14,2.14v6.59Zm3.69-9.9V76.2l-3.13-.48V72Zm-3.13-.61h0l3.21.51h0Zm3.23,4.28V72.53l.18,0v3.75Zm.27.05V72.49l.17,0v3.76Zm3.19-3.16v3.64l-2.93-.44V72.63Zm-2.93-.57h0l3,.48h0Zm3,4.23V73.1l.18,0v3.73Zm.27,0V73.06l.16,0v3.74Zm3.26-3.11V77.3l-3-.46V73.2Zm-3-.59h0l3.08.49h0Zm3.1,4.21V73.69l.18,0v3.7Zm1.67.26-1.4-.21V73.58a0,0,0,0,0,0,0l-10.68-1.72h0a.08.08,0,0,0,0,0V75.7l-.5-.07h0l-.17,0V71.49l12.19,2h0l.66-.08Zm-.67-4.21-12.23-2h0l-16.71,2.15-1.33-.19L181.75,71l13.71,2.21Zm-12-2.49V64.16l14,2.36v6.6Zm3.7-9.81v3.63l-3.14-.53V60.51Zm-3.14-.65h0l3.18.57h0Zm3.23,4.3V61.05l.17,0v3.72Zm.27,0V61l.17,0v3.73ZM189,61.69v3.6l-2.92-.49V61.17Zm-2.8-.6,2.87.51h0Zm2.9,4.22V61.69l.17,0v3.69Zm.27,0v-3.7l.16,0v3.7Zm.25.05V61.77l3,.54V65.9Zm3.1.52V62.31l.18,0V66Zm1.69.28L193,66V62.24a.05.05,0,0,0,0-.05L182.33,60.3h0a.05.05,0,0,0,0,0v3.8l-.51-.09h0l-.17,0V60l12.18,2.15h0l.68-.08Zm-.69-4.2-12.22-2.15h0l-16.7,2.34L163.47,62l18.28-2.59,13.73,2.42Zm-12-2.71V52.58l14,2.58v6.59Zm3.68-9.7v3.58l-3.12-.58V49Zm-3.12-.69h0l3.2.6h0Zm3.22,4.28V49.59l.18,0v3.67Zm.28,0V49.55l.16,0v3.69Zm3.19-3v3.55l-2.93-.54V49.71Zm-2.93-.65v0l3,.57h-.06Zm3,4.22V50.27l.17-.05v3.65Zm.26,0V50.22l.16,0v3.67Zm3.26-3v3.55l-3-.55V50.37Zm-3-.66h0l3.08.58h0Zm3.1,4.23V50.94l.17,0v3.64Zm1.67.31-1.4-.26V50.84a.07.07,0,0,0,0-.05l-3.62-.68h0l-7.06-1.32s0,0,0,0l0,0v3.74l-.5-.09h0l-.17,0V48.42l12.22,2.32h0l.64-.08Zm-.65-4.17-12.25-2.33h0l-16.7,2.53-1.4-.26,18.32-2.81,13.76,2.64Zm-12-3V41l14,2.78v6.6Zm-.25-10.91h0l-16.72,2.7-1.39-.24,18.32-3,14.37,3-1.64.26ZM181.88,9l.48,0v9.63l-.48-.11Zm-.45,9.49L195,21.62v10.5L181.76,29.3h0l-.32.06Zm.28,10.88v6.7l-18.52,3.07v-6.6Zm-3-29.28.78,0V18.77l-.78.14Zm2.65,18.4V29.38l-15,2.56V21.26Zm-20.51.5,5.73,1.27v.82l-.3.05a0,0,0,0,0,0,0v.65l-5.39,1ZM166.21,22V32l-.27,0v-2.6a.08.08,0,0,0,0,0h0l-3.52.63a0,0,0,0,0,0,.05v3.59l0,0h0l.72-.13v2.59l-2.71.47V23Zm-3.66,8.17v3.4l-.13,0V30.1ZM144.33,200V25.26l14.22-2.57,0,96.59V200Zm16,0h-1.62l0-93.58V22.69l1.65.33ZM158.61,22.58h0l-5.51,1V20.45L160.72,19v3.83l-.38.07ZM164.75,200h-4.36V36.69l2.71-.47v3l-.25.06a0,0,0,0,0,0,0h0V183.81a.05.05,0,0,0,.05.05h.24V187a0,0,0,0,0,0,0l0,0h0l1.61,0Zm16.72,0H164.84V187l16.63-.24Zm13,0H181.57V186.77h.18l12.7.23Zm1.89,0h-1.8V187l1.27,0h0a0,0,0,0,0,0,0v-6.69a0,0,0,0,0-.05,0l-1.27,0v-4.55h1.27l0,0a0,0,0,0,0,0,0V168.9a0,0,0,0,0-.05-.05l-1.27,0v-4.49l1.27-.05h0s0,0,0,0v-6.69a0,0,0,0,0,0,0l-1.29-.07v-4.47l1.28-.05h0a.06.06,0,0,0,0,0v-6.69a0,0,0,0,0,0-.05l-1.29-.09v-4.43l1.29-.08h0a0,0,0,0,0,0,0v-6.69a0,0,0,0,0,0-.05l-1.28-.11V130.2l1.28-.09h0a0,0,0,0,0,0,0v-6.69a0,0,0,0,0,0,0l-1.27-.12v-4.38l1.27-.1h0s0,0,0,0,0,0,0,0V112a0,0,0,0,0,0,0l-1.28-.14v-4.32l1.28-.1h0s0,0,0,0,0,0,0,0v-6.69a0,0,0,0,0,0,0l-1.28-.17V96.1l1.28-.13h0s0,0,0,0,0,0,0,0V89.23a0,0,0,0,0,0,0L194.54,89V84.73l1.28-.16h0a0,0,0,0,0,0,0V77.83a.07.07,0,0,0,0,0l-1.28-.19V73.37l1.28-.15h0s0,0,0,0a.05.05,0,0,0,0,0V66.48a0,0,0,0,0,0,0l-1.28-.22V62l1.28-.15h0l0,0V55.12a.07.07,0,0,0,0,0l-1.28-.23v-4.2l1.28-.17h0a.05.05,0,0,0,0,0V43.73a0,0,0,0,0,0,0l-1.28-.26V39.5l1.8-.27Zm4.8,0h-4.7V39.23l4.7,1Zm10.52,0H201.24V187.13h.49l9.93.17Zm3.05,0h-3V187.3l3,0Zm2.31,0H214.8V187.35h.38l0,0v-6.54a.05.05,0,0,0,0-.05h-.35v-4.46h.35l0,0s0,0,0,0v-6.54a.05.05,0,0,0,0,0h-.35v-4.44l.35,0h0a.05.05,0,0,0,0,0v-6.53a0,0,0,0,0,0-.05l-.36,0v-4.42l.36,0h0l0,0,0,0v-6.54s0,0,0-.05l-.36,0V143l.36,0h0l0,0v-6.54a0,0,0,0,0,0,0l-.37,0v-4.43l.37,0h0l0,0s0,0,0,0v-6.54a0,0,0,0,0,0,0l-.36,0v-4.4l.36,0h0a.05.05,0,0,0,0,0v-6.53a0,0,0,0,0,0,0l-.36,0v-4.39l.36,0h0a.05.05,0,0,0,0,0v-6.53a0,0,0,0,0,0,0l-.36,0V98.6l.36,0h0s0,0,0,0V92s0,0,0,0l-.36-.05V87.49l.36,0h0s0,0,0,0V80.87a.07.07,0,0,0,0-.05l-.37,0V76.41l.36,0h0s0,0,0,0V69.78a.07.07,0,0,0,0,0l-.37-.06V65.3l.36,0h0a.08.08,0,0,0,0,0V58.67a0,0,0,0,0,0,0l-.37-.07V54.21l.36-.05h0a.05.05,0,0,0,0,0v-4.8l1,.24h0l14.18-2.09v3.83l-.73.11V47.83a.08.08,0,0,0,0,0h0l-11.72,1.69a.07.07,0,0,0,0,.05v3.56l-2.53.36a0,0,0,0,0,0,.05v6.28l0,0h.06l1.53.28h0l13.49-1.82v3.84l-.73.1v-3.6s0,0,0,0l0,0-7.74,1h0l-4,.53a.07.07,0,0,0,0,.05v3.58l-2.53.33a0,0,0,0,0,0,0v6.28s0,0,0,0,0,0,0,0h0l1.53.29h0L230.43,69v3.9l-.73.09V69.39a.05.05,0,0,0,0,0h0l-3.84.48h0l-7.88,1a.07.07,0,0,0,0,0v3.62l-2.53.31a0,0,0,0,0,0,0V81.1s0,0,0,0,0,0,0,0h0l1.52.26h0l13.49-1.56v3.94l-.73.08V80.18a.05.05,0,0,0,0,0h0l-11.72,1.32a.07.07,0,0,0,0,0v3.67l-2.53.28s0,0,0,0v6.28s0,0,0,0l0,0h0l1.52.23h0l13.48-1.42v4l-.72.07V91a.05.05,0,0,0,0,0h0l-11.71,1.22a0,0,0,0,0-.05,0v3.68l-2.53.26s0,0,0,0v6.28s0,0,0,0l0,0h0l1.52.19h0l13.48-1.28v4l-.72.07v-3.75a.05.05,0,0,0,0,0h0l-11.71,1.1s-.05,0-.05,0v3.71l-2.53.23a.07.07,0,0,0,0,0v6.28a.08.08,0,0,0,0,0h.08l1.52.19h0l13.48-1.13v4l-.73.06s0,0,0,0v-3.74a.05.05,0,0,0,0,0h0l-11.71,1a0,0,0,0,0-.05,0v3.7a.08.08,0,0,0,0,0h0l5.9-.46-8.48.69a0,0,0,0,0,0,0v6.28s0,0,0,0h.09l1.51.15h0l13.49-1v4.09l-15.08,1.06a0,0,0,0,0,0,0v6.28a.08.08,0,0,0,0,0h.1l1.5.15h0l13.5-.84v4.1l-15.07.9a0,0,0,0,0-.05,0v6.27a.05.05,0,0,0,0,0h.11l1.49.14h0l13.5-.74v4.16l-15.07.74a0,0,0,0,0-.05.05v6.28a0,0,0,0,0,0,0l0,0h.1l1.47.11h0l13.5-.55v4.16l-15.07.59s-.05,0-.05,0v6.28a.06.06,0,0,0,0,0h.19l1.42.06,13.5-.43v4.23l-15.07.43s-.05,0-.05.05v6.28s0,0,0,0h.24l1.37.05,13.5-.29v4.23l-15.07.31a0,0,0,0,0-.05.05v6.28a0,0,0,0,0,0,0s0,0,0,0l1.66,0Zm5-86.72v3.58H222v-3.61Zm-.22,0v3.63h-.19v-3.62Zm-.29.09v3.56l-3.37.26v-3.53Zm-3.47.28v3.55H218v-3.59ZM230.43,200H217.11V187.88l13.32-.2Zm13.17,0H230.53V187.68h.29l12.78.25Zm2.14,0h-2.05V187.92l1.75,0h0a.05.05,0,0,0,0,0l0-6.23a0,0,0,0,0-.05,0l-1.78-.05v-4.18l1.75-.07h0l0,0,0-6.24a0,0,0,0,0-.05,0l-1.78-.08v-4.15l1.75-.08h0a.08.08,0,0,0,0,0l0-6.23a0,0,0,0,0-.05,0l-1.78-.1v-4.08l1.75-.09h0a.05.05,0,0,0,0,0l0-6.23a0,0,0,0,0-.05-.05l-1.78-.12v-4.06l1.75-.12h0l0,0,0-6.23a0,0,0,0,0-.05-.05l-1.78-.15v-4l1.75-.12h0l0,0,0-6.23a0,0,0,0,0-.05-.05l-1.78-.18v-4l1.75-.13h0l0,0s0,0,0,0l0-6.23a0,0,0,0,0-.05,0l-1.78-.2v-3.94l1.75-.13h0l0,0,0-6.24a.07.07,0,0,0,0,0l-1.79-.22v-3.92l1.78-.16h0a.05.05,0,0,0,0,0V96.67a0,0,0,0,0,0,0l-1.79-.26V92.52l1.78-.17h0a.08.08,0,0,0,0,0V86.05a.07.07,0,0,0,0,0l-1.8-.28V81.93l1.8-.21h0a.08.08,0,0,0,0,0V75.42a.07.07,0,0,0,0,0l-1.79-.3V71.33l1.79-.21h0a.05.05,0,0,0,0,0V64.82a0,0,0,0,0,0,0l-1.79-.34V60.72l1.79-.24h0l0,0V54.18a.07.07,0,0,0,0,0l-1.79-.35V50.1l1.79-.25h0a.08.08,0,0,0,0,0v-5l.2.06h0Zm1.56,0h-1.46V44.88l1.46-.2Zm11.24,0H247.4V44.68L258.54,47ZM269.91,76.07a.69.69,0,0,1-.2,0h-.17a1.49,1.49,0,0,1-1-1.53,1.85,1.85,0,0,1,1.35-1.86h.33a1.45,1.45,0,0,1,1,1.5A1.83,1.83,0,0,1,269.91,76.07Zm.13.07a2,2,0,0,0,1.32-1.94,1.72,1.72,0,0,0-.68-1.42,1.52,1.52,0,0,1,.88,1.46,1.85,1.85,0,0,1-1.36,1.88Zm.31,0v3.67l-.19,0V76.22h.06Zm-4.16.35a1.29,1.29,0,0,1-.89,1.28,1.41,1.41,0,0,0,.78-1.31,1.26,1.26,0,0,0-.38-.93A1.08,1.08,0,0,1,266.19,76.53Zm-.73,1.33v2.52l-.16,0V77.91ZM265,74.35a1.07,1.07,0,0,1-.25,0h-.1l-.12,0h0a1.91,1.91,0,0,1-1.25-2A2.36,2.36,0,0,1,265,70l.18,0h.11l.13,0a1.88,1.88,0,0,1,1.3,1.94A2.39,2.39,0,0,1,265,74.35Zm.08.08a2.48,2.48,0,0,0,1.75-2.5,2.14,2.14,0,0,0-.94-1.87A1.92,1.92,0,0,1,267.09,72a2.38,2.38,0,0,1-1.74,2.42A1,1,0,0,1,265.05,74.43Zm.41,0v.92l-.15,0h0v-.86h.07Zm-.4,3.32h-.25a1,1,0,0,1-.66-1.05,1.27,1.27,0,0,1,.93-1.28h.22a1,1,0,0,1,.68,1A1.27,1.27,0,0,1,265.06,77.79Zm-5,122.2h-1.43V92.32l1.43.23Zm14.77,0H260.16V165.53l14.67-.47Zm0-35-14.67.47v-28l14.67-.87Zm0-28.53-14.67.86V109.21L274.83,108Zm0-28.57-14.67,1.26V92.51a.07.07,0,0,0,0-.05l-1.49-.24v-11l16.2-1.78Zm12,92.13H274.92V184.52l11.88.28Zm0-15.29-11.88-.28V168.68l11.88.55Zm0-15.57-11.88-.55V152.83l11.88.81Zm0-15.59-11.88-.81V137l11.88,1.07Zm0-15.57-11.88-1.07V121.15l11.88,1.34Zm0-15.58-11.88-1.34V105.31l11.88,1.6Zm0-15.57-11.88-1.6V89.48l11.88,1.86ZM289.3,200h-2.41V184.8l2.41.06Zm0-15.23-2.41-.06V169.23l2.41.11Zm0-15.52-2.41-.11V153.65l2.41.16Zm0-15.53-2.41-.16V138.08l2.41.22Zm0-15.51-2.41-.22V122.5l2.41.27Zm0-15.53-2.41-.27V106.93l2.41.32Zm0-15.52-2.41-.32V91.35l2.41.38ZM300.74,200H289.4V184.86l11.34.26Zm0-15-11.34-.27V169.35l11.34.52Zm0-15.26-11.34-.52V153.82l11.34.77Zm0-15.28-11.34-.77V138.31l11.34,1Zm0-15.26-11.34-1V122.78l11.34,1.28Zm0-15.27-11.34-1.28V107.26l11.34,1.53Zm0-15.27-11.34-1.52V91.75l11.34,1.77Zm0-15.26-25.82-4.05V79.46l25.82,4.4Zm14,106.56H300.83V132.68l13.92-.86Zm26.73,0H314.85V131.82l26.63,2.77Z"/><path d="M165.8,180h0l14.42-.33a0,0,0,0,0,.05,0v-4s0,0,0,0h0l-14.42.37a0,0,0,0,0-.05,0v4s0,0,0,0Zm11.1-4.25,3.27-.09v3.92l-3.27.07Zm-.26,0h.16v3.9h-.16Zm-.3,0h.2v3.9h-.2Zm-3.43.09,3.33-.09v3.9l-3.33.08Zm-.23,0h.14v3.89h-.14Zm-.29,0h.2v3.89h-.2Zm-3.34.09,3.25-.08v3.88l-3.25.08Zm-.24,0H169v3.88h-.15Zm-.3,0h.21v3.88h-.21Zm-2.41.06,2.32-.05v3.87l-2.32.06Zm-.25,0H166v3.87h-.16Z"/><path d="M193,175.91l-10.69-.34h0a0,0,0,0,0,0,0v4s0,.05,0,.05L193,180h0a0,0,0,0,0,0,0v-4A0,0,0,0,0,193,175.91Zm-7.5,3.74-3.15-.1v-3.89l3.15.1Zm.25,0h-.16v-3.88h.16Zm.27,0h-.17v-3.88H186Zm3,.09-2.93-.09v-3.88l2.93.1Zm.26,0h-.17v-3.87h.17Zm.27,0h-.17v-3.87h.17Zm3.09.09-3-.09V175.9l3,.09Zm.28,0h-.19V176H193Z"/><path d="M180.2,164.05l-14.39.54a0,0,0,0,0-.05,0v3.92s0,0,0,0h0l14.39-.45a0,0,0,0,0,.05,0v-4a.05.05,0,0,0,0,0ZM166,168.51h-.15v-3.84H166Zm2.39-.07-2.3.07v-3.84l2.3-.08Zm.31,0h-.21v-3.85h.21Zm.24,0h-.14v-3.85H169Zm3.33-.11-3.23.11v-3.86l3.23-.12Zm.3,0h-.21v-3.87h.21Zm.24,0h-.14v-3.87h.14Zm3.43-.11-3.33.11v-3.88l3.33-.13Zm.31,0h-.21v-3.9h.21Zm.24,0h-.14v-3.9h.14Zm3.35-.1-3.25.1v-3.9l3.25-.12Z"/><path d="M193,164.54l-10.69-.49h0a.05.05,0,0,0,0,0v4a0,0,0,0,0,.05,0l10.68.45h0s0,0,0,0v-3.94A0,0,0,0,0,193,164.54Zm-7.49,3.63-3.15-.13v-3.89l3.15.14Zm.24,0h-.15V164.3h.15Zm.28,0h-.19v-3.88H186Zm3,.13-2.93-.12v-3.88l2.93.14Zm.26,0h-.16v-3.86h.16Zm.25,0h-.15v-3.86h.15Zm3.12.13-3-.12v-3.87l3,.14Zm.27,0h-.18v-3.85H193Z"/><path d="M180.2,152.54l-14.39.69a0,0,0,0,0-.05.05v3.92s0,0,0,0h0l14.39-.6a0,0,0,0,0,.05-.05v-4s0,0,0,0S180.21,152.54,180.2,152.54ZM166,157.15h-.15v-3.83H166Zm2.41-.1-2.31.09v-3.83l2.31-.11Zm.28,0h-.19v-3.85h.19Zm.26,0h-.17v-3.85H169Zm3.32-.14-3.22.13v-3.85l3.22-.16Zm.29,0h-.19V153h.19Zm.26,0h-.16V153h.16Zm3.43-.14-3.33.14V153l3.33-.16Zm.3,0h-.2v-3.9h.2Zm.23,0h-.13V152.8h.13Zm3.36-.14-3.26.14v-3.91l3.26-.16Z"/><path d="M193,153.18l-10.69-.64s0,0,0,0,0,0,0,0v4a0,0,0,0,0,.05.05l10.68.6h0s0,0,0,0v-3.94S193,153.18,193,153.18Zm-7.5,3.52-3.14-.17v-3.9l3.14.19Zm.26,0h-.16v-3.88h.16Zm.26,0h-.17v-3.87H186Zm3,.17-2.93-.16v-3.88l2.93.18Zm.26,0h-.16v-3.86h.16Zm.26,0h-.17v-3.86h.17Zm3.09.18-3-.17v-3.86l3,.18Zm.29,0h-.19v-3.85l.19,0Z"/><path d="M180.2,141l-14.4.89a.07.07,0,0,0,0,.05v3.93s0,0,0,0l0,0h0l14.39-.8a0,0,0,0,0,.05-.05v-4a.05.05,0,0,0,0,0ZM166,145.81h-.15V142H166Zm2.42-.13-2.33.12V142l2.33-.14Zm.28,0h-.19v-3.85h.19Zm.24,0h-.14V141.8H169Zm3.33-.19-3.23.18v-3.85l3.23-.2Zm.3,0-.2,0v-3.88h.2Zm.24,0h-.15v-3.88h.15Zm3.45-.19-3.35.19v-3.88l3.35-.21Zm.29,0h-.2v-3.9h.2Zm.23,0h-.14v-3.9h.14Zm3.36-.19-3.26.19V141.3l3.26-.2Z"/><path d="M193,141.85,182.31,141h0a.05.05,0,0,0,0,0v4a.07.07,0,0,0,0,.05l10.69.8h0l0,0a0,0,0,0,0,0,0V141.9A0,0,0,0,0,193,141.85Zm-7.49,3.38-3.15-.24V141.1l3.15.25Zm.25,0h-.16v-3.88h.16Zm.27,0h-.18v-3.88H186Zm3,.22-2.93-.22V141.4l2.93.23Zm.26,0h-.17v-3.86h.17Zm.26,0h-.16v-3.86h.16Zm3.09.23-3-.22v-3.86l3,.24Zm.29,0-.2,0v-3.85l.2,0Z"/><path d="M180.2,129.49l-14.4,1.06a0,0,0,0,0,0,0v3.92s0,0,0,0h0l14.4-1a0,0,0,0,0,0,0v-4l0,0Zm-14.18,5h-.16v-3.83H166Zm2.4-.16-2.31.16v-3.84l2.31-.17Zm.29,0h-.19v-3.85h.19Zm.24,0h-.14v-3.85H169Zm3.35-.22-3.25.22V130.4l3.25-.23Zm.29,0h-.2v-3.87l.2,0Zm.23,0h-.14v-3.87h.14Zm3.44-.23-3.35.23v-3.88l3.35-.25Zm.29,0-.19,0v-3.9l.19,0Zm.24,0h-.14v-3.9l.14,0Zm3.36-.23-3.26.22v-3.9l3.26-.24Z"/><path d="M180.2,118l-14.4,1.2a0,0,0,0,0,0,0v3.93a.08.08,0,0,0,0,0h0l14.4-1.11a0,0,0,0,0,0,0v-4s0,0,0,0S180.21,118,180.2,118ZM166,123.08h-.15v-3.83H166Zm2.4-.19-2.31.18v-3.83l2.31-.19Zm.31,0-.21,0V119l.21,0Zm.23,0h-.14V119H169Zm3.35-.26-3.26.26V119l3.26-.27Zm.28,0-.18,0v-3.88h.18Zm.24,0h-.14v-3.87h.14Zm3.43-.26-3.34.26v-3.88l3.34-.28Zm.3,0h-.21v-3.9h.21Zm.24,0h-.14v-3.9h.14Zm3.36-.26-3.26.25v-3.9l3.26-.28Z"/><path d="M217.93,181.28h0l11.72-.21a.05.05,0,0,0,0,0v-3.74a.05.05,0,0,0,0,0h0l-11.72.25a0,0,0,0,0-.05,0v3.71s0,0,0,0Zm8.14-3.88,3.53-.07V181l-3.53.06Zm-.21,0H226V181h-.11Zm-.29,0h.19V181h-.19Zm-3.39.07,3.29-.07v3.64l-3.29.06Zm-.22,0h.12v3.63H222Zm-.28,0h.18v3.62h-.18Zm-3.49.08,3.39-.08v3.63l-3.39.06Zm-.21,0h.11v3.61H218Z"/><path d="M231.51,181.06l11.33.3h0l0,0a0,0,0,0,0,0,0v-3.67a0,0,0,0,0,0,0l-11.34-.37h0a.05.05,0,0,0,0,0V181S231.49,181.06,231.51,181.06Zm11.14-3.37h.15v3.57h-.15Zm-1.83-.06,1.73.05v3.57l-1.73,0Zm-.23,0h.13v3.59h-.13Zm-.27,0h.17v3.58h-.17Zm-2.54-.08,2.45.08v3.58l-2.45-.06Zm-.24,0h.14v3.61h-.14Zm-.25,0h.16v3.6h-.16Zm-2.65-.08,2.55.08v3.6l-2.55-.06Zm-.24,0h.14v3.63h-.14Zm-.26,0h.16V181h-.16Zm-2.58-.08,2.49.08V181l-2.49-.06Z"/><path d="M217.93,170.61h0l11.72-.32a.05.05,0,0,0,0,0V166.5a.08.08,0,0,0,0,0h0l-11.72.36a0,0,0,0,0-.05.05v3.7a.05.05,0,0,0,0,0Zm8.13-4,3.54-.11v3.65l-3.54.09Zm-.21,0H226v3.64h-.11Zm-.28,0h.19v3.63h-.19Zm-3.4.11,3.3-.11v3.64l-3.3.09Zm-.2,0h.11v3.62H222Zm-.3,0h.2v3.63h-.2Zm-3.48.11,3.39-.11v3.63l-3.39.09Zm-.21,0h.11v3.61H218Z"/><path d="M231.51,170.29l11.33.45h0l0,0a0,0,0,0,0,0,0V167a0,0,0,0,0,0,0l-11.34-.53h0a.08.08,0,0,0,0,0v3.74A0,0,0,0,0,231.51,170.29Zm11.14-3.23h.15v3.57h-.15Zm-1.84-.08,1.74.08v3.57l-1.74-.07Zm-.22,0h.12v3.59h-.12Zm-.26,0h.17v3.59h-.17Zm-2.55-.12,2.45.11v3.59l-2.45-.1Zm-.25,0h.15v3.61h-.15Zm-.25,0h.16v3.61h-.16Zm-2.65-.12,2.55.12v3.61l-2.55-.11Zm-.22,0h.12v3.62h-.12Zm-.27,0h.17v3.62h-.17Zm-2.58-.12,2.49.11v3.63l-2.49-.1Z"/><path d="M217.93,159.94h0l11.72-.43a0,0,0,0,0,0,0v-3.74a.05.05,0,0,0,0,0h0l-11.72.46s-.05,0-.05.05v3.71s0,0,0,0Zm8.13-4,3.54-.14v3.65l-3.54.12Zm-.21,0H226v3.64h-.12Zm-.28,0h.19v3.64h-.19Zm-3.39.13,3.3-.13v3.64l-3.3.12Zm-.23,0h.13v3.63H222Zm-.28,0h.19v3.63h-.19Zm-3.47.14,3.37-.13v3.62l-3.37.12Zm-.22,0h.12v3.61H218Z"/><path d="M231.51,159.51l11.33.61h0a.06.06,0,0,0,0,0v-3.66s0,0,0,0l-11.33-.69h0a.05.05,0,0,0,0,0v3.74S231.48,159.5,231.51,159.51Zm11.15-3.07h.14V160h-.14Zm-1.84-.11,1.74.11V160l-1.74-.1Zm-.23,0h.13v3.58h-.13Zm-.26,0h.16v3.59h-.16Zm-2.56-.15,2.46.15v3.58l-2.46-.13Zm-.23,0h.14v3.6h-.14Zm-.25,0h.16v3.6h-.16Zm-2.65-.16,2.55.15v3.61l-2.55-.14Zm-.23,0h.13v3.62h-.13Zm-.27,0h.17v3.62h-.17Zm-2.58-.16,2.49.15v3.63l-2.49-.14Z"/><path d="M217.93,149.31h0l11.72-.59a0,0,0,0,0,0,0v-3.75a.08.08,0,0,0,0,0h0l-11.72.62a.05.05,0,0,0-.05.05v3.71s0,0,0,0Zm8.13-4.14,3.54-.19v3.65l-3.54.18Zm-.21,0H226v3.64h-.12Zm-.28,0h.19v3.64h-.19Zm-3.39.18,3.3-.17v3.63l-3.3.17Zm-.24,0h.14V149h-.14Zm-.27,0h.18V149h-.18Zm-3.48.19,3.38-.18V149l-3.38.17Zm-.21,0h.11v3.61H218Z"/><path d="M231.51,148.72l11.33.8h0a.06.06,0,0,0,0,0v-3.66s0-.05,0-.05l-11.33-.88h0a.08.08,0,0,0,0,0v3.74A.05.05,0,0,0,231.51,148.72Zm11.13-2.88h.16v3.57h-.16Zm-1.82-.14,1.73.13v3.57l-1.73-.12Zm-.24,0h.14v3.58h-.14Zm-.25,0h.16v3.59h-.16Zm-2.56-.2,2.46.19v3.59l-2.46-.18Zm-.24,0h.14v3.61h-.14Zm-.25,0,.15,0V149h-.15Zm-2.65-.2,2.55.2V149l-2.55-.18Zm-.22,0h.13v3.63h-.13Zm-.26,0h.16v3.63h-.16Zm-2.59-.2,2.49.19v3.63l-2.49-.17Z"/><path d="M217.93,138.61h0l11.72-.67a0,0,0,0,0,0-.05v-3.75l0,0h0l-11.71.71a0,0,0,0,0-.05.05v3.7a.05.05,0,0,0,0,0Zm8.13-4.2,3.54-.22v3.65l-3.54.21Zm-.21,0H226v3.63h-.11Zm-.28,0h.18v3.64h-.18Zm-3.4.21,3.3-.2v3.63l-3.3.19Zm-.22,0h.13v3.63H222Zm-.29,0h.19v3.62h-.19Zm-3.45.21,3.36-.2v3.62l-3.39.19Zm-.23,0h.13l0,3.61H218Z"/><path d="M217.93,127.93h0l11.72-.8a0,0,0,0,0,0,0v-3.74a.05.05,0,0,0,0,0h0l-11.71.84a0,0,0,0,0-.05.05v3.7a.08.08,0,0,0,0,0Zm8.12-4.23,3.55-.26V127l-3.55.24Zm-.2,0,.11,0v3.6h-.11Zm-.29,0,.2,0v3.64h-.2Zm-3.4.3,3.31-.23v3.57l-3.31.23Zm-.19,0,.1,0v3.58H222Zm-.3,0,.2,0v3.62l-.2,0Zm-3.48.31,3.38-.24v3.56l-3.38.23Zm-.21,0,.11,0v3.56H218Z"/><path d="M231.51,127.13l11.33,1.1h0s0,0,0,0v-3.66a.05.05,0,0,0,0,0l-11.33-1.18h0a.05.05,0,0,0,0,0v3.74S231.48,127.12,231.51,127.13Zm11.13-2.51.16,0v3.55h-.16Zm-1.83-.2,1.74.2v3.49l-1.74-.17Zm-.23-.09.13,0v3.58h-.13Zm-.25,0,.16,0v3.57l-.16,0Zm-.07-.08h0l-.2,0Zm-2.48-.18,2.45.27v3.49l-2.45-.24Zm-.24-.1h.15v3.6h-.15Zm-.27,0,.18,0v3.59l-.18,0Zm-2.63-.28,2.54.28v3.51l-2.54-.24Zm-.22-.1h.12v3.63l-.12,0Zm-.28,0,.19,0v3.61l-.19,0Zm0-.08h0l-1-.11Zm-2.53-.18,2.49.27v3.53l-2.49-.24Z"/><path d="M119,110.67h0l3.2-.3a0,0,0,0,0,.05,0v-1.78l0,0s0,0,0,0l-3.2.34a.07.07,0,0,0,0,.05v1.72a0,0,0,0,0,0,0A.05.05,0,0,0,119,110.67Zm3.15-.39-2.39.22V109l2.39-.24Zm0-1.67v.07l-2.43.24-.24,0Zm-3.11.34.63.06v1.5l-.63,0Z"/><path d="M119.05,145.27h0l3.18-.18a.05.05,0,0,0,0-.05v-1.78l0,0h0l-3.19.2a0,0,0,0,0,0,.05v1.76s0,0,0,0A.05.05,0,0,0,119.05,145.27Zm3.13-.28-2.36.14v-1.56l2.36-.14Zm0-1.68v0l-2.41.15h-.12Zm-3.09.2.63.06v1.56l-.63,0Z"/><path d="M119,179.9h0l3.2-.09a0,0,0,0,0,0-.05V178a.06.06,0,0,0,0,0h0L119,178a0,0,0,0,0,0,0v1.78s0,0,0,0Zm.79-1.8,2.37-.07v1.68l-2.37.07Zm-.74,0,.64,0v1.68l-.64,0Z"/><path d="M127.66,89.32l5.48.71h0a.08.08,0,0,0,0,0v-3.5a0,0,0,0,0,0,0l-5.48-.78h0a.08.08,0,0,0,0,0v3.57A0,0,0,0,0,127.66,89.32Zm5.44.6-.56-.07V86.62l.56-.08Zm-2.25-3.71,2,.27-.32,0-1.64-.24Zm0,.17,1.59.24v3.22l-1.59-.2Zm-.74-.28.64.09v3.43l-.64-.08Zm-.1,3.43-.57-.07V86.2l.57-.1Zm-2.29-3.77,2,.29-.36.06-1.67-.23Zm0,.21,1.62.23v3.24l-1.62-.2Z"/><path d="M127.67,106.15l5.49.62h0a.08.08,0,0,0,0,0v-3.49s0,0-.05,0l-5.49-.66,0,0a0,0,0,0,0,0,0v3.53A0,0,0,0,0,127.67,106.15Zm5.45.52-.56-.07v-3.24l.56-.07ZM130.85,103l1.94.23-.28,0-1.66-.19Zm0,.18,1.61.18v3.23l-1.61-.18Zm-.76-.27.66.08v3.41l-.66-.07Zm-.09,3.41-.56-.07V103l.56-.1Zm-2.28-3.69,2,.23-.31.06-1.68-.22Zm0,.17,1.63.21v3.23l-1.63-.18Z"/><path d="M127.64,123l5.5.5h0a.05.05,0,0,0,0,0V120s0,0,0,0l-5.5-.53,0,0s0,0,0,0V123A.07.07,0,0,0,127.64,123Zm5.45.4-.54,0v-3.25l.54-.09Zm-2.25-3.62,1.94.18-.28,0-1.66-.17Zm0,.15,1.61.18v3.23l-1.61-.15Zm-.75-.22.65.06v3.41l-.65-.06Zm-.09,3.41-.56-.06V119.8l.56-.08Zm-2.3-3.65,2,.19-.26,0-1.69-.18Zm0,.15,1.64.17v3.27l-1.64-.16Z"/><path d="M127.67,139.89l5.49.35h0l0,0s0,0,0,0v-3.47a0,0,0,0,0,0,0l-5.5-.42h0a.08.08,0,0,0,0,0v3.53A0,0,0,0,0,127.67,139.89Zm5.44.25-.59,0v-3.26l.59-.06Zm-2.27-3.54,1.81.13-.18,0-1.63-.14Zm0,.1,1.58.14v3.25l-1.58-.1Zm-.75-.16.66.05V140l-.66,0Zm-.09,3.4-.56,0v-3.29l.56-.07Zm-2.28-3.58,1.84.14-.16,0-1.68-.14Zm0,.12,1.63.13v3.29l-1.63-.1Z"/><path d="M127.67,156.73l5.46.26h0s0,0,0,0,0,0,0,0v-3.47a0,0,0,0,0-.05,0l-5.46-.32h0a.05.05,0,0,0,0,0v3.52A0,0,0,0,0,127.67,156.73Zm4.89-3.15.52-.05v3.37l-.52,0Zm-1.71-.19,1.69.1h0l-1.67-.09Zm0,.11,1.62.09v3.28l-1.62-.08Zm-.76-.15.67,0v3.39l-.67,0Zm-.09,3.4-.56,0v-3.3l.56-.07Zm-2.28-3.54,1.78.1h-.11l-1.67-.1Zm0,.1,1.62.11v3.3l-1.62-.08Z"/><path d="M127.67,173.58l5.47.14h0s0,0,0,0v-3.45a0,0,0,0,0,0-.05l-5.48-.21,0,0s0,0,0,0v3.52A0,0,0,0,0,127.67,173.58Zm4.88-3.34.55,0v3.35h-.55Zm-1.69-.06,1.6.06v3.37l-1.6,0Zm-.77,0,.67,0v3.38h-.67Zm-.66,0,.57,0v3.39h-.57Zm-1.71-.07,1.61.06v3.41l-1.61-.05Z"/><path d="M127.66,190.42l5.48.06h0s0,0,0,0V187a0,0,0,0,0,0,0l-5.49-.06h0s0,0,0,0v3.48A0,0,0,0,0,127.66,190.42Zm4.88-3.43h.56v3.39h-.56Zm-1.68,0,1.58,0v3.39l-1.58,0Zm-.77,0h.68v3.39h-.68Zm-.66,0H130v3.39h-.57Zm-1.72,0h1.63v3.39l-1.63,0Z"/><path d="M140.88,98.64l1.41.15h0a0,0,0,0,0,0,0v-13a0,0,0,0,0,0,0l-1.41-.22s0,0,0,0,0,0,0,0V98.59A.05.05,0,0,0,140.88,98.64Zm1.37,0-.29,0V85.8l.29,0Zm-1.32-13.15,1,.16h-.06l-1-.13Zm0,.13.93.13V98.65l-.93-.1Z"/><path d="M140.87,115.23l1.41.12h0l0,0s0,0,0,0v-13a0,0,0,0,0,0,0l-1.41-.19h0a.08.08,0,0,0,0,0v13.1A0,0,0,0,0,140.87,115.23ZM142,102.38l.27,0v12.92l-.27,0Zm0-.1h0l-.52-.08Zm-1,0,1,.15v12.84l-1-.08Z"/><path d="M140.88,131.83l1.41.08h0a0,0,0,0,0,0,0v-13a0,0,0,0,0,0,0l-1.42-.14h0a.05.05,0,0,0,0,0v13.08S140.85,131.82,140.88,131.83Zm1.07-12.9.3,0v12.92H142Zm-1-.18.69.07-.69-.06Zm0,.11.93.07v12.86l-.93-.06Z"/><path d="M140.87,148.43l1.41.07h0l0,0V135.4a0,0,0,0,0-.05,0l-1.4-.1h0s0,0,0,0v13.07A0,0,0,0,0,140.87,148.43ZM142,135.49l.28,0v12.95l-.28,0Zm-1-.06.94.07v12.89l-.94,0Z"/><path d="M140.87,165l1.41.06h0s0,0,0,0V152s0,0,0,0l-1.41-.07,0,0a0,0,0,0,0,0,0v13A0,0,0,0,0,140.87,165ZM142,152l.28,0V165H142Zm-1,0,.94,0V165l-.94,0Z"/><path d="M140.87,181.57l1.41.06h0l0,0a0,0,0,0,0,0,0v-13a0,0,0,0,0,0-.05l-1.42-.06,0,0s0,0,0,0v13A0,0,0,0,0,140.87,181.57Zm1.09-13h.28v12.94H142Zm-1,0,.94,0v12.93l-.94,0Z"/><path d="M140.87,198.19h1.42a0,0,0,0,0,.05-.05v-13a0,0,0,0,0,0-.05l-1.43,0h0a.05.05,0,0,0,0,0v13A.05.05,0,0,0,140.87,198.19Zm1.09-13h.29v12.92H142Zm-1,0h1v12.93h-1Z"/><path d="M268.93,116.39h0l3.48-.24a0,0,0,0,0,0,0v-1.68s0,0,0,0l0,0-3.48.3a.05.05,0,0,0-.05,0v1.61a.08.08,0,0,0,0,0Zm3.43-.33-2.82.19v-1.4l2.82-.23Zm0-1.58v0l-2.87.22h-.11Zm-3.38.3.46.06v1.42l-.46,0Z"/><path d="M268.94,148.8h0l3.46-.16a0,0,0,0,0,.05,0v-1.66l0,0,0,0-3.46.18a0,0,0,0,0-.05.05v1.63l0,0Zm.6-1.57,2.81-.15v1.47l-2.81.12Zm0-.09h0Zm-.53,0,.46.06v1.45l-.46,0Z"/><path d="M268.94,181.21h0l3.46,0a.05.05,0,0,0,.05,0v-1.66a.08.08,0,0,0,0,0h0l-3.46.08s0,0,0,0v1.62a.06.06,0,0,0,0,0Zm.61-1.63,2.8-.07v1.56l-2.8,0Zm-.56,0h.46v1.53H269Z"/><path d="M277.31,96.4l4.24.61h0s0,0,0,0V93.72a.07.07,0,0,0,0,0L277.32,93h0s0,0,0,0v3.29A.05.05,0,0,0,277.31,96.4Zm4.2.51-.63-.09v-3l.63-.09Zm-1.71-3.42,1.42.22-.39.06-1-.2Zm0,.18,1,.18v3l-1-.14Zm-.59-.27.5.08v3.17l-.5-.07Zm-.09,3.16-.62-.09v-3l.62-.09Zm-1.76-3.45,1.48.23-.39.06-1.09-.19Zm0,.2,1,.18v3l-1-.15Z"/><path d="M294.51,99l4,.59h0a.05.05,0,0,0,0,0V96.29a.07.07,0,0,0,0-.05l-4-.63h0l0,0v3.26A0,0,0,0,0,294.51,99Zm4,.49-.6-.09V96.42l.6-.08Zm-1.62-3.37,1.33.21-.36,0-1-.19Zm0,.16.92.18v2.93l-.92-.14Zm-.56-.25.46.07V99.2l-.46-.07Zm-.1,3.13-.58-.09v-3l.58-.08Zm-1.66-3.4,1.39.21-.36,0-1-.17Zm0,.19,1,.16v3l-1-.14Z"/><path d="M277.3,112.19l4.25.51h0s0,0,0,0v-3.26a.07.07,0,0,0,0,0l-4.25-.55s0,0,0,0,0,0,0,0v3.31A0,0,0,0,0,277.3,112.19Zm4.21.41-.61-.07v-3l.61-.08Zm-1.71-3.39,1.38.18-.33,0-1.05-.15Zm0,.16,1,.15v3l-1-.12Zm-.59-.24.49.07v3.18l-.49-.06Zm-.1,3.18-.61-.07v-3l.61-.07Zm-1.75-3.42,1.4.18-.31,0-1.09-.14Zm0,.18,1.05.13v3l-1.05-.13Z"/><path d="M294.48,114.37l4,.48h0l0,0V111.6a0,0,0,0,0,0,0l-4-.53h0l0,0v3.25A0,0,0,0,0,294.48,114.37Zm4,.38-.57-.07v-3l.57-.07Zm-1.62-3.32,1.29.17-.29,0-1-.15Zm0,.16.95.14v2.94l-.95-.11Zm-.56-.23.47.06v3.13l-.47-.06Zm-.09,3.12-.58-.07v-3l.58-.06Zm-1.66-3.35,1.31.17-.27,0-1-.13Zm0,.17,1,.12v3l-1-.12Z"/><path d="M277.31,128l4.24.43h0a0,0,0,0,0,0,0v-3.25a0,0,0,0,0,0,0l-4.24-.48s0,0,0,0,0,0,0,0v3.29A.07.07,0,0,0,277.31,128Zm4.2.33-.6-.06v-3l.6-.06Zm-1.72-3.34,1.32.15-.25,0-1.07-.14Zm0,.14,1,.13v3l-1-.1Zm-.59-.21.49.06v3.17l-.49,0Zm-.1,3.16-.6-.06v-3l.6-.07Zm-1.73-3.36,1.38.15-.29,0-1.09-.13Zm0,.16,1,.12v3l-1-.1Z"/><path d="M294.48,129.75l4,.41h0a0,0,0,0,0,0,0v-3.19a.07.07,0,0,0,0-.05l-4-.45h0a.05.05,0,0,0,0,0v3.22A0,0,0,0,0,294.48,129.75Zm4,.31-.57-.05v-3l.57-.06Zm-1.62-3.27,1.22.14-.21,0-1-.12Zm0,.13,1,.12v3l-1-.1Zm-.56-.19.46,0v3.11l-.46,0Zm-.1,3.1-.56-.06v-3l.56-.07Zm-1.63-3.3,1.28.15-.26,0-1-.12Zm0,.16,1,.11v3l-1-.1Z"/><path d="M277.3,143.76l4.26.33h0l0,0a0,0,0,0,0,0,0v-3.25a.07.07,0,0,0,0,0l-4.26-.39s0,0,0,0l0,0v3.32A0,0,0,0,0,277.3,143.76Zm4.22.23-.62-.05v-3.05l.62,0Zm-1.73-3.32,1.22.12h-.16l-1.06-.11Zm0,.12,1,.1v3l-1-.08Zm-.6-.17.5,0v3.19l-.5,0Zm-.09,3.18-.6,0v-3.07l.6-.07Zm-1.74-3.36,1.33.13-.24,0-1.09-.11Zm0,.15,1,.1v3.06l-1-.08Z"/><path d="M294.48,145.14l4,.31h0l0,0v-3.15a0,0,0,0,0,0,0l-4.05-.39,0,0a0,0,0,0,0,0,0v3.22A0,0,0,0,0,294.48,145.14Zm4,.21-.58,0v-3l.58,0Zm-1.63-3.21,1.13.11h-.12l-1-.1Zm0,.11,1,.1v3l-1-.07Zm-.57-.16.47,0v3.09l-.47,0Zm-.1,3.08-.56,0v-3l.56-.07Zm-1.65-3.24,1.25.11-.21,0-1-.1Zm0,.13,1,.1v3l-1-.07Z"/><path d="M277.32,159.55l4.23.24h0l0,0,0,0v-3.25a0,0,0,0,0-.05-.05l-4.23-.28h0a.05.05,0,0,0,0,0v3.29A0,0,0,0,0,277.32,159.55Zm3.59-3,.59,0v3.15l-.59,0Zm-1.12-.08,1,.08v3.07l-1-.06Zm-.59-.12.5,0v3.18l-.5,0Zm-.72,0,.62,0v3.17l-.62,0Zm-1.11-.06,1,.06v3.1l-1,0Z"/><path d="M294.49,160.55l4,.22h0s0,0,0,0v-3.16a0,0,0,0,0-.05,0l-4-.27h0a.06.06,0,0,0,0,0v3.19A0,0,0,0,0,294.49,160.55Zm3.41-2.89.56,0v3l-.56,0Zm-1.06-.07,1,.07v3l-1,0Zm-.56-.11.47,0v3.07l-.47,0Zm-.68,0,.58,0v3.08l-.58,0Zm-1.06-.05,1,.05v3l-1,0Z"/><path d="M277.31,175.36l4.26.1h0s0,0,0,0v-3.25a.05.05,0,0,0-.05,0l-4.25-.16,0,0s0,0,0,0v3.3A0,0,0,0,0,277.31,175.36Zm3.6-3.17.61,0v3.15l-.61,0Zm-1.11,0,1,0v3.16l-1,0Zm-.6,0,.51,0v3.17h-.51Zm-.7,0,.6,0v3.18l-.6,0Zm-1.14,0,1,0v3.19l-1,0Z"/><path d="M294.48,176l4.07.1h0a.06.06,0,0,0,0,0v-3.13a0,0,0,0,0,0,0l-4.07-.15h0s0,0,0,0v3.18A0,0,0,0,0,294.48,176Zm3.44-3.06.59,0v3h-.59Zm-1.05,0,1,0v3l-1,0Zm-.58,0,.48,0v3.06h-.48Zm-.67,0,.57,0v3.06h-.57Zm-1.09,0,1,0v3.08l-1,0Z"/><path d="M277.31,191.12l4.24,0h0l0,0v-3.28a0,0,0,0,0-.05-.05l-4.23-.08h0a.06.06,0,0,0,0,0v3.29A0,0,0,0,0,277.31,191.12Zm3.57-3.23h.62v3.16h-.62Zm-1.08,0,1,0v3.16h-1Zm-.6,0h.51v3.18h-.51Zm-.7,0h.61V191h-.61Zm-1.14,0,1,0V191h-1Z"/><path d="M294.49,191.37l4.06,0h0l0,0v-3.15a.05.05,0,0,0-.05-.05l-4.05-.08,0,0a0,0,0,0,0,0,0v3.19A0,0,0,0,0,294.49,191.37Zm3.42-3.13h.59v3.06h-.59Zm-1,0,.93,0v3.06h-.93Zm-.58,0h.48v3.07h-.48Zm-.67,0h.58v3.08h-.58Zm-1.09,0,1,0v3.08h-1Z"/><path d="M287.53,105l1.1.17h0s0,0,0,0V92.9a.05.05,0,0,0,0-.05l-1.1-.18h0a.08.08,0,0,0,0,0V105A0,0,0,0,0,287.53,105Zm1.06.07-.3,0V93l.3,0Zm-1-12.32.7.11h-.05l-.65-.1Zm0,.12.6.09V105l-.6-.1Z"/><path d="M287.54,120.6l1.09.12h0s0,0,0,0V108.43s0-.05,0-.05l-1.09-.14h0a.05.05,0,0,0,0,0v12.26S287.51,120.59,287.54,120.6Zm1,0-.3,0V108.53l.3,0Zm-1-12.28.72.09h-.07l-.65-.1Zm0,.1.61.09v12l-.61-.06Z"/><path d="M287.54,136.16l1.1.08h0s0,0,0,0V124s0,0,0,0l-1.11-.15,0,0s0,0,0,0v12.27A0,0,0,0,0,287.54,136.16Zm.75-12.1.3,0v12.1l-.3,0Zm-.7-.07.6.07v12.05l-.6,0Z"/><path d="M287.55,151.74l1.08,0h0a0,0,0,0,0,0,0V139.51a0,0,0,0,0,0,0l-1.09-.08s0,0,0,0,0,0,0,0v12.26A0,0,0,0,0,287.55,151.74Zm.75-12.2.29,0v12.12h-.29Zm-.7-.06.61.05v12.13l-.61,0Z"/><path d="M287.54,167.29l1.09,0h0l0,0,0,0V155.05a0,0,0,0,0-.05-.05l-1.08-.06h0a0,0,0,0,0,0,0v12.26A0,0,0,0,0,287.54,167.29Zm.76-12.21h.28v12.13h-.28Zm-.71,0,.62,0v12.14l-.62,0Z"/><path d="M287.54,182.82l1.09,0h0a0,0,0,0,0,0,0V170.57a0,0,0,0,0,0,0l-1.1,0h0a.05.05,0,0,0,0,0v12.23A0,0,0,0,0,287.54,182.82Zm.75-12.21h.3v12.13h-.3Zm-.7,0,.61,0v12.13h-.61Z"/><path d="M287.55,198.38l1.06,0h0l0,0s0,0,0,0V186.12a0,0,0,0,0-.05-.05l-1.06,0h0s0,0,0,0v12.23A.05.05,0,0,0,287.55,198.38Zm.75-12.22h.26V198.3h-.26Zm-.1,0v12.13h-.6V186.15Z"/></g></g></svg>