<svg xmlns="http://www.w3.org/2000/svg" viewBox="0 0 270.09 438.54"><defs><style>.cls-1{fill:#d3d3d3;}</style></defs><title>twitter</title><g id="Layer_2" data-name="Layer 2"><g id="Layer_1-2" data-name="Layer 1"><path class="cls-1" d="M203.85,367.16q-19.12,0-33.4-8.85-11.13-6.57-14.84-17.13-4-10.28-4-49.11V179.58H255.53V110.77H151.61V0H89.08Q84.79,33.69,73.66,56a121.5,121.5,0,0,1-29.4,37.69Q26,109.07,0,117.63v62H48.54V333.48q0,30.54,6.28,46,6,15.44,22.55,30a116.16,116.16,0,0,0,39.4,21.41q23.13,7.71,53.11,7.71,27.41,0,49.39-5.42,21.69-4.86,50.82-18.57V345.46Q237.26,367.17,203.85,367.16Z"/></g></g></svg>